<svg xmlns="http://www.w3.org/2000/svg" xmlns:xlink="http://www.w3.org/1999/xlink" width="1000" zoomAndPan="magnify" viewBox="0 0 0 0" height="1000" preserveAspectRatio="xMidYMid meet" version="1.0"><defs><g/><clipPath id="efa5017e76"><path d="M 628.175781 138.644531 L 707.675781 138.644531 L 707.675781 167.144531 L 628.175781 167.144531 Z M 628.175781 138.644531 " clip-rule="nonzero"/></clipPath><clipPath id="31e59d6c22"><path d="M 569 167 L 737.730469 167 L 737.730469 298 L 569 298 Z M 569 167 " clip-rule="nonzero"/></clipPath><clipPath id="33fdbae627"><path d="M 563 597.5 L 731.761719 597.5 L 731.761719 728 L 563 728 Z M 563 597.5 " clip-rule="nonzero"/></clipPath><clipPath id="331d6d47ae"><path d="M 547 585.078125 L 747.988281 585.078125 L 747.988281 741 L 547 741 Z M 547 585.078125 " clip-rule="nonzero"/></clipPath><clipPath id="0ff41da0d6"><path d="M 660 306 L 745 306 L 745 589 L 660 589 Z M 660 306 " clip-rule="nonzero"/></clipPath><clipPath id="3802c18c05"><path d="M 659.824219 588.871094 L 674.253906 302.734375 L 755.152344 306.8125 L 740.71875 592.949219 Z M 659.824219 588.871094 " clip-rule="nonzero"/></clipPath><clipPath id="07efed1b69"><path d="M 659.824219 588.871094 L 674.253906 302.734375 L 755.152344 306.8125 L 740.71875 592.949219 Z M 659.824219 588.871094 " clip-rule="nonzero"/></clipPath><clipPath id="31ebffdf40"><path d="M 659.824219 588.871094 L 674.253906 302.734375 L 755.152344 306.8125 L 740.71875 592.949219 Z M 659.824219 588.871094 " clip-rule="nonzero"/></clipPath><clipPath id="a4fc161651"><path d="M 698 546 L 700 546 L 700 548 L 698 548 Z M 698 546 " clip-rule="nonzero"/></clipPath><clipPath id="b818e5d8b8"><path d="M 659.824219 588.871094 L 674.253906 302.734375 L 755.152344 306.8125 L 740.71875 592.949219 Z M 659.824219 588.871094 " clip-rule="nonzero"/></clipPath><clipPath id="be4cfd3f83"><path d="M 659.824219 588.871094 L 674.253906 302.734375 L 755.152344 306.8125 L 740.71875 592.949219 Z M 659.824219 588.871094 " clip-rule="nonzero"/></clipPath><clipPath id="d949743498"><path d="M 659.824219 588.871094 L 674.253906 302.734375 L 755.152344 306.8125 L 740.71875 592.949219 Z M 659.824219 588.871094 " clip-rule="nonzero"/></clipPath><clipPath id="992c712ac2"><path d="M 756.492188 382.15625 L 796.242188 382.15625 L 796.242188 427.90625 L 756.492188 427.90625 Z M 756.492188 382.15625 " clip-rule="nonzero"/></clipPath><clipPath id="a75737b455"><path d="M 1038 304.0625 L 1206.621094 304.0625 L 1206.621094 435 L 1038 435 Z M 1038 304.0625 " clip-rule="nonzero"/></clipPath><clipPath id="4e6285bb2e"><path d="M 1022 292 L 1222.84375 292 L 1222.84375 447 L 1022 447 Z M 1022 292 " clip-rule="nonzero"/></clipPath><clipPath id="d0f3b91792"><path d="M 791 508 L 1011 508 L 1011 681 L 791 681 Z M 791 508 " clip-rule="nonzero"/></clipPath><clipPath id="d15f354bde"><path d="M 787.304688 670.921875 L 987.742188 490.027344 L 1038.996094 546.816406 L 838.558594 727.714844 Z M 787.304688 670.921875 " clip-rule="nonzero"/></clipPath><clipPath id="e9ce764d6e"><path d="M 787.304688 670.921875 L 987.742188 490.027344 L 1038.996094 546.816406 L 838.558594 727.714844 Z M 787.304688 670.921875 " clip-rule="nonzero"/></clipPath><clipPath id="f5999e5db0"><path d="M 787.304688 670.921875 L 987.742188 490.027344 L 1038.996094 546.816406 L 838.558594 727.714844 Z M 787.304688 670.921875 " clip-rule="nonzero"/></clipPath><clipPath id="6fa0e1ab24"><path d="M 841 668 L 843 668 L 843 670 L 841 670 Z M 841 668 " clip-rule="nonzero"/></clipPath><clipPath id="6dd525bf54"><path d="M 787.304688 670.921875 L 987.742188 490.027344 L 1038.996094 546.816406 L 838.558594 727.714844 Z M 787.304688 670.921875 " clip-rule="nonzero"/></clipPath><clipPath id="7249a835b1"><path d="M 787.304688 670.921875 L 987.742188 490.027344 L 1038.996094 546.816406 L 838.558594 727.714844 Z M 787.304688 670.921875 " clip-rule="nonzero"/></clipPath><clipPath id="96033033e7"><path d="M 787.304688 670.921875 L 987.742188 490.027344 L 1038.996094 546.816406 L 838.558594 727.714844 Z M 787.304688 670.921875 " clip-rule="nonzero"/></clipPath><clipPath id="5b7035e334"><path d="M 816 436 L 1031 436 L 1031 629 L 816 629 Z M 816 436 " clip-rule="nonzero"/></clipPath><clipPath id="01bf221c69"><path d="M 1034.410156 443.054688 L 845.027344 646.910156 L 787.332031 593.308594 L 976.714844 389.453125 Z M 1034.410156 443.054688 " clip-rule="nonzero"/></clipPath><clipPath id="7d4e0d5407"><path d="M 1034.410156 443.054688 L 845.027344 646.910156 L 787.332031 593.308594 L 976.714844 389.453125 Z M 1034.410156 443.054688 " clip-rule="nonzero"/></clipPath><clipPath id="a8f3372652"><path d="M 1034.410156 443.054688 L 845.027344 646.910156 L 787.332031 593.308594 L 976.714844 389.453125 Z M 1034.410156 443.054688 " clip-rule="nonzero"/></clipPath><clipPath id="73eddf1ea4"><path d="M 978 449 L 980 449 L 980 451 L 978 451 Z M 978 449 " clip-rule="nonzero"/></clipPath><clipPath id="d866a8f319"><path d="M 1034.410156 443.054688 L 845.027344 646.910156 L 787.332031 593.308594 L 976.714844 389.453125 Z M 1034.410156 443.054688 " clip-rule="nonzero"/></clipPath><clipPath id="13863cc957"><path d="M 1034.410156 443.054688 L 845.027344 646.910156 L 787.332031 593.308594 L 976.714844 389.453125 Z M 1034.410156 443.054688 " clip-rule="nonzero"/></clipPath><clipPath id="f6fff98964"><path d="M 1034.410156 443.054688 L 845.027344 646.910156 L 787.332031 593.308594 L 976.714844 389.453125 Z M 1034.410156 443.054688 " clip-rule="nonzero"/></clipPath><clipPath id="d5ec9a0036"><path d="M 758 183 L 1010 183 L 1010 314 L 758 314 Z M 758 183 " clip-rule="nonzero"/></clipPath><clipPath id="67563454d5"><path d="M 997.390625 332.707031 L 754.992188 207.121094 L 790.53125 138.53125 L 1032.929688 264.117188 Z M 997.390625 332.707031 " clip-rule="nonzero"/></clipPath><clipPath id="ef5e64f668"><path d="M 754.992188 207.121094 L 997.390625 332.707031 L 1032.929688 264.117188 L 790.53125 138.53125 Z M 754.992188 207.121094 " clip-rule="nonzero"/></clipPath><clipPath id="0b5e276a27"><path d="M 754.992188 207.121094 L 997.390625 332.707031 L 1032.929688 264.117188 L 790.53125 138.53125 Z M 754.992188 207.121094 " clip-rule="nonzero"/></clipPath><clipPath id="35e8e47df4"><path d="M 807 194 L 810 194 L 810 196 L 807 196 Z M 807 194 " clip-rule="nonzero"/></clipPath><clipPath id="158d2fd47c"><path d="M 997.390625 332.707031 L 754.992188 207.121094 L 790.53125 138.53125 L 1032.929688 264.117188 Z M 997.390625 332.707031 " clip-rule="nonzero"/></clipPath><clipPath id="e001f3c777"><path d="M 754.992188 207.121094 L 997.390625 332.707031 L 1032.929688 264.117188 L 790.53125 138.53125 Z M 754.992188 207.121094 " clip-rule="nonzero"/></clipPath><clipPath id="6a1d8a8800"><path d="M 754.992188 207.121094 L 997.390625 332.707031 L 1032.929688 264.117188 L 790.53125 138.53125 Z M 754.992188 207.121094 " clip-rule="nonzero"/></clipPath><clipPath id="884c81d13a"><path d="M 191 331 L 360.339844 331 L 360.339844 462 L 191 462 Z M 191 331 " clip-rule="nonzero"/></clipPath><clipPath id="889c344a75"><path d="M 280 174 L 538 174 L 538 297 L 280 297 Z M 280 174 " clip-rule="nonzero"/></clipPath><clipPath id="80a29c503e"><path d="M 546.234375 232.457031 L 281.335938 298.46875 L 262.65625 223.511719 L 527.558594 157.5 Z M 546.234375 232.457031 " clip-rule="nonzero"/></clipPath><clipPath id="0327e1b2e6"><path d="M 281.335938 298.46875 L 546.234375 232.457031 L 527.558594 157.5 L 262.65625 223.511719 Z M 281.335938 298.46875 " clip-rule="nonzero"/></clipPath><clipPath id="d8dd835ad0"><path d="M 281.335938 298.46875 L 546.234375 232.457031 L 527.558594 157.5 L 262.65625 223.511719 Z M 281.335938 298.46875 " clip-rule="nonzero"/></clipPath><clipPath id="b3f3baf8f5"><path d="M 313 253 L 314 253 L 314 255 L 313 255 Z M 313 253 " clip-rule="nonzero"/></clipPath><clipPath id="60c9774061"><path d="M 546.234375 232.457031 L 281.335938 298.46875 L 262.65625 223.511719 L 527.558594 157.5 Z M 546.234375 232.457031 " clip-rule="nonzero"/></clipPath><clipPath id="9cab662fe9"><path d="M 281.335938 298.46875 L 546.234375 232.457031 L 527.558594 157.5 L 262.65625 223.511719 Z M 281.335938 298.46875 " clip-rule="nonzero"/></clipPath><clipPath id="0ece7da903"><path d="M 281.335938 298.46875 L 546.234375 232.457031 L 527.558594 157.5 L 262.65625 223.511719 Z M 281.335938 298.46875 " clip-rule="nonzero"/></clipPath><clipPath id="c26d01e5eb"><path d="M 303 481 L 551 481 L 551 624 L 303 624 Z M 303 481 " clip-rule="nonzero"/></clipPath><clipPath id="24a0fd7e94"><path d="M 305.140625 479.324219 L 562.261719 571.078125 L 536.296875 643.832031 L 279.179688 552.078125 Z M 305.140625 479.324219 " clip-rule="nonzero"/></clipPath><clipPath id="ce8760e95a"><path d="M 305.140625 479.324219 L 562.261719 571.078125 L 536.296875 643.832031 L 279.179688 552.078125 Z M 305.140625 479.324219 " clip-rule="nonzero"/></clipPath><clipPath id="3f1065b53c"><path d="M 305.140625 479.324219 L 562.261719 571.078125 L 536.296875 643.832031 L 279.179688 552.078125 Z M 305.140625 479.324219 " clip-rule="nonzero"/></clipPath><clipPath id="a45eea00e6"><path d="M 332 526 L 334 526 L 334 528 L 332 528 Z M 332 526 " clip-rule="nonzero"/></clipPath><clipPath id="ce5e6e3e2c"><path d="M 305.140625 479.324219 L 562.261719 571.078125 L 536.296875 643.832031 L 279.179688 552.078125 Z M 305.140625 479.324219 " clip-rule="nonzero"/></clipPath><clipPath id="3d74a79d92"><path d="M 305.140625 479.324219 L 562.261719 571.078125 L 536.296875 643.832031 L 279.179688 552.078125 Z M 305.140625 479.324219 " clip-rule="nonzero"/></clipPath><clipPath id="e3e66a7e90"><path d="M 305.140625 479.324219 L 562.261719 571.078125 L 536.296875 643.832031 L 279.179688 552.078125 Z M 305.140625 479.324219 " clip-rule="nonzero"/></clipPath><clipPath id="e893dbf415"><path d="M 320.398438 588.925781 L 360.148438 588.925781 L 360.148438 634.675781 L 320.398438 634.675781 Z M 320.398438 588.925781 " clip-rule="nonzero"/></clipPath></defs><g clip-path="url(#efa5017e76)"><path fill="#ffffff" d="M 629.480469 163.640625 C 628.269531 162.816406 628.527344 161.839844 628.855469 160.910156 C 629.746094 158.328125 631.0625 156.007812 633.070312 154.109375 C 639.472656 148.0625 647.050781 144.136719 655.503906 141.960938 C 664.167969 139.726562 672.722656 140.214844 680.992188 143.785156 C 684.882812 145.464844 688.683594 147.355469 692.664062 149.21875 C 692.519531 148.785156 692.386719 148.230469 692.160156 147.710938 C 690.648438 144.15625 690.78125 143.316406 693.484375 140.511719 C 694.085938 139.882812 694.800781 139.367188 695.644531 138.644531 C 696.09375 139.375 696.433594 139.890625 696.742188 140.425781 C 700.058594 146.167969 703.28125 151.976562 706.761719 157.625 C 707.601562 158.996094 707.527344 160.054688 706.976562 161.21875 C 705.859375 163.558594 703.894531 165.230469 701.847656 166.671875 C 701.132812 167.175781 699.796875 167.011719 698.785156 166.867188 C 691.390625 165.777344 683.960938 165.382812 676.511719 165.980469 C 674.191406 166.167969 671.898438 166.710938 669.390625 167.117188 C 669.113281 166.375 669.570312 165.550781 670.011719 164.855469 C 672.074219 161.574219 674.585938 158.84375 678.699219 158.265625 C 680.644531 157.996094 682.585938 157.707031 684.53125 157.453125 C 685.394531 157.34375 686.273438 157.316406 687.347656 157.234375 C 683.375 152.90625 665.917969 148.761719 657.066406 149.90625 C 646.296875 151.296875 637.160156 156.078125 629.480469 163.640625 Z M 629.480469 163.640625 " fill-opacity="1" fill-rule="nonzero"/></g><g clip-path="url(#31e59d6c22)"><path fill="#ffffff" d="M 631.578125 197.027344 C 631.839844 196.914062 631.917969 194.992188 631.992188 194.691406 C 632.03125 194.390625 632.179688 192.46875 632.445312 192.355469 C 636.550781 190.320312 640.730469 188.515625 645.023438 186.933594 C 661.5625 180.867188 680.09375 178.191406 697.269531 183.089844 C 711.394531 187.121094 724.464844 196.199219 731.847656 209.042969 C 735.765625 215.824219 737.800781 223.542969 737.835938 231.339844 C 737.875 235.109375 737.347656 238.800781 736.707031 242.453125 C 736.027344 246.257812 735.238281 249.988281 733.957031 253.640625 C 728.496094 269.195312 716.441406 281.175781 701.828125 288.40625 C 685.59375 296.429688 667.210938 298.464844 649.320312 297.03125 C 639.789062 296.242188 630.296875 294.585938 621.03125 292.285156 C 613.875 290.554688 606.832031 288.292969 600.125 285.242188 C 587.128906 279.328125 575.039062 269.761719 570.78125 255.597656 C 568.257812 247.238281 569.089844 238.875 570.746094 230.476562 C 572.363281 222.300781 575.867188 214.730469 580.765625 208.027344 C 590.785156 194.390625 605.699219 184.40625 621.03125 177.628906 C 637.226562 170.472656 654.96875 166.96875 672.671875 167.34375 C 672.445312 167.34375 672.109375 172.054688 671.804688 172.054688 C 667.625 171.941406 663.40625 172.054688 659.226562 172.390625 C 642.5 173.75 626.078125 178.644531 611.351562 186.628906 C 597.226562 194.316406 583.703125 204.9375 575.753906 219.175781 C 573.757812 222.789062 572.140625 226.59375 571.007812 230.550781 C 570.78125 231.378906 570.59375 232.246094 570.367188 233.113281 C 569.878906 234.957031 570.59375 231.304688 570.445312 232.585938 C 570.332031 233.714844 570.144531 234.84375 570.066406 235.972656 C 569.917969 237.933594 569.917969 239.929688 570.066406 241.886719 C 570.558594 249.460938 573.195312 256.691406 577.714844 262.792969 C 586 274.019531 599.257812 280.574219 612.21875 284.792969 C 619.863281 287.277344 627.773438 289.011719 635.683594 290.402344 C 645.101562 292.023438 654.667969 292.964844 664.234375 292.664062 C 680.546875 292.210938 696.929688 288.144531 710.679688 279.101562 C 717.234375 274.773438 723.070312 269.347656 727.628906 262.945312 C 729.890625 259.703125 731.847656 256.277344 733.390625 252.660156 C 734.183594 250.816406 734.898438 248.933594 735.5 247.011719 C 735.804688 246.070312 736.066406 245.128906 736.292969 244.1875 C 736.40625 243.695312 736.519531 243.207031 736.632812 242.71875 C 737.046875 240.984375 736.40625 244.601562 736.59375 242.828125 C 737.386719 235.109375 736.933594 227.574219 734.144531 220.230469 C 731.660156 213.675781 727.628906 207.761719 722.65625 202.863281 C 711.996094 192.28125 697.496094 186.367188 682.578125 185.351562 C 664.914062 184.183594 647.324219 189.265625 631.578125 197.027344 Z M 631.578125 197.027344 " fill-opacity="1" fill-rule="nonzero"/></g><g clip-path="url(#33fdbae627)"><path fill="#ffffff" d="M 625.609375 627.558594 C 625.875 627.445312 625.949219 625.523438 626.023438 625.222656 C 626.0625 624.921875 626.214844 623 626.476562 622.886719 C 630.582031 620.851562 634.765625 619.042969 639.058594 617.460938 C 655.59375 611.398438 674.125 608.722656 691.300781 613.621094 C 705.425781 617.652344 718.5 626.730469 725.882812 639.574219 C 729.796875 646.351562 731.832031 654.074219 731.871094 661.871094 C 731.90625 665.640625 731.378906 669.332031 730.738281 672.984375 C 730.0625 676.789062 729.269531 680.515625 727.992188 684.171875 C 722.527344 699.726562 710.476562 711.707031 695.859375 718.9375 C 679.625 726.960938 661.242188 728.996094 643.351562 727.5625 C 633.824219 726.773438 624.332031 725.117188 615.0625 722.816406 C 607.90625 721.085938 600.863281 718.824219 594.160156 715.773438 C 581.164062 709.859375 569.074219 700.292969 564.816406 686.128906 C 562.292969 677.769531 563.121094 669.40625 564.777344 661.003906 C 566.398438 652.832031 569.902344 645.261719 574.796875 638.554688 C 584.816406 624.921875 599.734375 614.9375 615.0625 608.160156 C 631.261719 601 649.003906 597.5 666.707031 597.875 C 666.480469 597.875 666.140625 602.582031 665.839844 602.582031 C 661.660156 602.472656 657.441406 602.582031 653.257812 602.921875 C 636.535156 604.277344 620.113281 609.175781 605.382812 617.160156 C 591.257812 624.84375 577.734375 635.46875 569.789062 649.707031 C 567.792969 653.320312 566.171875 657.125 565.042969 661.082031 C 564.816406 661.910156 564.628906 662.777344 564.402344 663.640625 C 563.914062 665.488281 564.628906 661.835938 564.476562 663.113281 C 564.363281 664.246094 564.175781 665.375 564.101562 666.503906 C 563.949219 668.464844 563.949219 670.460938 564.101562 672.417969 C 564.589844 679.988281 567.226562 687.222656 571.746094 693.324219 C 580.035156 704.550781 593.292969 711.101562 606.25 715.320312 C 613.894531 717.808594 621.804688 719.539062 629.714844 720.933594 C 639.132812 722.554688 648.699219 723.496094 658.269531 723.195312 C 674.578125 722.742188 690.964844 718.675781 704.710938 709.632812 C 711.265625 705.300781 717.105469 699.878906 721.664062 693.476562 C 723.921875 690.234375 725.882812 686.808594 727.425781 683.191406 C 728.214844 681.347656 728.933594 679.460938 729.535156 677.542969 C 729.835938 676.601562 730.101562 675.660156 730.324219 674.714844 C 730.4375 674.226562 730.550781 673.738281 730.664062 673.246094 C 731.078125 671.515625 730.4375 675.132812 730.628906 673.359375 C 731.417969 665.640625 730.964844 658.105469 728.179688 650.761719 C 725.691406 644.207031 721.664062 638.292969 716.691406 633.394531 C 706.03125 622.8125 691.527344 616.898438 676.613281 615.878906 C 658.945312 614.710938 641.355469 619.796875 625.609375 627.558594 Z M 625.609375 627.558594 " fill-opacity="1" fill-rule="nonzero"/></g><g clip-path="url(#331d6d47ae)"><path fill="#ffffff" d="M 621.550781 620.816406 C 621.863281 620.683594 621.953125 618.398438 622.042969 618.039062 C 622.089844 617.683594 622.269531 615.398438 622.582031 615.261719 C 627.460938 612.84375 632.433594 610.695312 637.539062 608.816406 C 657.199219 601.605469 679.234375 598.425781 699.652344 604.246094 C 716.449219 609.039062 731.988281 619.832031 740.765625 635.101562 C 745.421875 643.164062 747.839844 652.34375 747.886719 661.613281 C 747.929688 666.09375 747.304688 670.480469 746.542969 674.824219 C 745.734375 679.347656 744.796875 683.78125 743.273438 688.125 C 736.78125 706.621094 722.449219 720.863281 705.074219 729.460938 C 685.769531 739 663.917969 741.417969 642.644531 739.71875 C 631.3125 738.777344 620.027344 736.804688 609.011719 734.074219 C 600.503906 732.015625 592.128906 729.328125 584.15625 725.699219 C 568.707031 718.667969 554.332031 707.292969 549.269531 690.457031 C 546.269531 680.511719 547.253906 670.570312 549.226562 660.585938 C 551.152344 650.867188 555.316406 641.863281 561.136719 633.894531 C 573.050781 617.683594 590.785156 605.8125 609.011719 597.753906 C 628.269531 589.242188 649.363281 585.078125 670.410156 585.527344 C 670.140625 585.527344 669.738281 591.125 669.378906 591.125 C 664.410156 590.992188 659.394531 591.125 654.421875 591.527344 C 634.539062 593.140625 615.011719 598.960938 597.503906 608.457031 C 580.707031 617.59375 564.632812 630.222656 555.179688 647.148438 C 552.808594 651.449219 550.882812 655.972656 549.539062 660.675781 C 549.269531 661.660156 549.046875 662.6875 548.777344 663.71875 C 548.195312 665.914062 549.046875 661.570312 548.867188 663.09375 C 548.734375 664.4375 548.507812 665.78125 548.417969 667.121094 C 548.238281 669.453125 548.238281 671.824219 548.417969 674.152344 C 549 683.15625 552.136719 691.753906 557.511719 699.007812 C 567.363281 712.355469 583.125 720.148438 598.53125 725.164062 C 607.625 728.117188 617.027344 730.179688 626.433594 731.835938 C 637.628906 733.761719 649.003906 734.878906 660.378906 734.523438 C 679.769531 733.984375 699.25 729.148438 715.597656 718.398438 C 723.390625 713.25 730.332031 706.800781 735.75 699.1875 C 738.4375 695.335938 740.765625 691.261719 742.601562 686.960938 C 743.542969 684.769531 744.394531 682.527344 745.109375 680.246094 C 745.46875 679.125 745.78125 678.003906 746.050781 676.886719 C 746.183594 676.304688 746.320312 675.722656 746.453125 675.140625 C 746.945312 673.078125 746.183594 677.378906 746.40625 675.273438 C 747.347656 666.09375 746.8125 657.136719 743.496094 648.402344 C 740.542969 640.609375 735.75 633.578125 729.839844 627.757812 C 717.164062 615.175781 699.921875 608.144531 682.1875 606.933594 C 661.183594 605.546875 640.269531 611.589844 621.550781 620.816406 Z M 621.550781 620.816406 " fill-opacity="1" fill-rule="nonzero"/></g><g clip-path="url(#0ff41da0d6)"><g clip-path="url(#3802c18c05)"><g clip-path="url(#07efed1b69)"><g clip-path="url(#31ebffdf40)"><path fill="#ffffff" d="M 662.40625 584.433594 C 662.601562 584.59375 662.820312 584.625 663.058594 584.542969 C 663.6875 585.148438 663.113281 586.433594 664.308594 586.71875 C 666.132812 588.742188 668.128906 588.109375 670.128906 587.066406 C 675.71875 584.117188 680.714844 580.324219 685.480469 576.222656 C 702.539062 561.511719 715.738281 543.921875 725.945312 523.8125 C 743.777344 488.710938 747.863281 451.757812 741.953125 413.367188 C 739.214844 395.566406 733.417969 378.582031 726.832031 361.863281 C 722.957031 352.035156 718.507812 342.476562 714.289062 332.800781 C 713.984375 332.519531 713.675781 332.25 713.371094 331.96875 C 713.375 331.5 713.242188 330.972656 713.429688 330.601562 C 713.429688 330.601562 713.429688 330.601562 713.441406 330.589844 C 713.59375 330.300781 714.007812 330.523438 714.160156 330.871094 C 717.78125 332.890625 720.851562 335.605469 723.78125 338.480469 C 725.785156 340.453125 727.875 342.214844 730.476562 343.324219 C 734.757812 347.59375 739.554688 347.976562 743.914062 344.585938 C 740.144531 333.125 731.570312 325.824219 722.25 319.109375 C 718.78125 316.609375 715.496094 313.882812 712.167969 311.207031 C 704.199219 304.796875 704.992188 306.175781 697.199219 309.105469 C 695.457031 309.761719 693.894531 310.808594 692.449219 312.007812 C 691.917969 312.449219 691.46875 312.90625 691.433594 313.636719 C 689.488281 314.492188 689.375 316.273438 689.351562 318.011719 C 689.285156 323.179688 689.277344 328.339844 689.25 333.511719 C 688.601562 334.5625 688.726562 335.695312 688.902344 336.828125 C 688.214844 337.855469 688.359375 339 688.449219 340.128906 C 687.84375 340.78125 688.011719 341.636719 687.867188 342.40625 C 685.863281 352.808594 682.722656 362.832031 677.878906 372.296875 C 677.511719 373.011719 677.207031 373.75 676.875 374.476562 C 676.46875 375.335938 676.007812 376.3125 676.796875 377.050781 C 677.398438 377.613281 678.539062 377.523438 679.082031 377.082031 C 681.496094 375.144531 684.703125 374.996094 687.199219 373.328125 C 688.3125 372.589844 689.027344 371.457031 689.734375 370.292969 C 695.234375 361.339844 698.996094 351.664062 701.78125 341.578125 C 702.027344 340.675781 702.140625 339.714844 702.5625 338.898438 C 703.058594 337.945312 703.871094 338.265625 704.578125 338.789062 C 704.398438 339.839844 704.785156 340.613281 705.683594 341.148438 C 705.707031 342.136719 705.808594 343.097656 706.808594 343.648438 C 706.679688 343.886719 706.746094 344.046875 707 344.136719 C 706.992188 345.082031 707.140625 345.957031 708.035156 346.511719 C 708.175781 347.15625 708.226562 347.828125 708.472656 348.4375 C 711.132812 355.101562 713.902344 361.71875 716.488281 368.414062 C 718.839844 374.488281 720.996094 380.628906 723.226562 386.742188 C 723.621094 388.429688 723.949219 390.125 724.410156 391.785156 C 728.769531 407.953125 731.117188 424.40625 730.996094 441.167969 C 730.949219 447.15625 730.722656 453.132812 730.570312 459.117188 C 729.875 460.21875 730.070312 461.394531 730.246094 462.582031 C 729.554688 463.621094 729.722656 464.746094 729.875 465.878906 C 729.148438 466.820312 729.382812 467.890625 729.433594 468.945312 C 728.894531 469.523438 728.894531 470.195312 729.101562 470.894531 C 728.921875 471.117188 728.898438 471.351562 729.046875 471.601562 C 728.460938 472.253906 728.609375 473.097656 728.441406 473.855469 C 727.605469 477.59375 727.441406 481.460938 726.144531 485.101562 C 726.433594 485.445312 726.539062 486.546875 727.167969 485.238281 C 727.59375 484.371094 727.863281 484.328125 728.074219 484.585938 C 728.253906 484.804688 728.390625 485.25 728.53125 485.574219 C 725.519531 497.296875 721.125 508.511719 715.992188 519.445312 C 715.421875 520.414062 714.851562 521.394531 714.28125 522.363281 C 710.875 528.160156 707.46875 533.96875 704.074219 539.765625 C 703.8125 539.871094 703.632812 540.03125 703.527344 540.238281 C 703.457031 540.382812 703.417969 540.539062 703.410156 540.71875 C 702.984375 540.890625 702.777344 541.207031 702.765625 541.652344 C 702.332031 541.8125 702.125 542.132812 702.125 542.589844 C 701.679688 542.734375 701.472656 543.054688 701.46875 543.519531 C 701.027344 543.667969 700.800781 543.976562 700.808594 544.445312 C 700.355469 544.582031 700.136719 544.886719 700.144531 545.355469 L 700.132812 545.367188 C 699.691406 545.492188 699.464844 545.800781 699.472656 546.257812 L 699.460938 546.277344 C 699.222656 546.550781 698.996094 546.847656 698.789062 547.15625 L 698.765625 547.1875 C 698.324219 547.3125 698.097656 547.597656 698.09375 548.066406 L 698.070312 548.097656 C 697.628906 548.222656 697.402344 548.507812 697.402344 548.976562 L 697.378906 549.007812 C 697.378906 549.007812 697.367188 549.015625 697.367188 549.015625 C 697.367188 549.015625 697.378906 549.007812 697.378906 549.007812 C 696.925781 549.121094 696.699219 549.417969 696.695312 549.886719 L 696.683594 549.90625 C 696.230469 550.023438 696.003906 550.320312 696.003906 550.785156 L 695.992188 550.796875 C 695.539062 550.921875 695.300781 551.21875 695.285156 551.683594 C 692.957031 554.285156 690.625 556.875 688.292969 559.476562 C 687.503906 561.210938 686.011719 562.355469 684.722656 563.660156 C 684.515625 563.597656 684.347656 563.496094 684.207031 563.371094 C 683.980469 563.179688 683.835938 562.9375 683.753906 562.613281 C 682.679688 563.496094 681.535156 564.296875 680.925781 565.617188 C 680.777344 566.03125 680.578125 566.414062 680.222656 566.707031 C 680.453125 566.34375 680.695312 565.984375 680.925781 565.617188 C 680.523438 565.828125 680.167969 566.078125 680.21875 566.578125 C 679.523438 566.671875 679.085938 567.082031 678.800781 567.707031 C 678.351562 567.757812 678.0625 567.976562 678.019531 568.453125 C 677.585938 568.621094 677.242188 568.859375 677.164062 569.355469 C 676.941406 569.40625 676.765625 569.515625 676.65625 569.742188 C 675.453125 570.414062 674.453125 571.300781 673.664062 572.429688 C 672.839844 572.949219 671.996094 573.449219 671.515625 574.347656 C 670.871094 574.484375 670.503906 574.988281 670.109375 575.445312 C 666.859375 577.492188 664.003906 580.117188 660.199219 581.613281 C 661.253906 582.59375 660.988281 584.128906 662.40625 584.433594 Z M 707.789062 344.035156 C 707.789062 344.046875 707.789062 344.046875 707.789062 344.058594 C 707.800781 344.058594 707.800781 344.046875 707.800781 344.046875 C 707.800781 344.058594 707.789062 344.070312 707.789062 344.070312 C 707.789062 344.070312 707.789062 344.058594 707.789062 344.058594 C 707.777344 344.058594 707.765625 344.058594 707.757812 344.066406 C 707.769531 344.046875 707.777344 344.046875 707.789062 344.035156 Z M 698.570312 551.085938 C 698.636719 551.023438 698.703125 550.964844 698.769531 550.902344 C 698.757812 550.925781 698.746094 550.945312 698.734375 550.964844 C 698.691406 551.027344 698.644531 551.089844 698.589844 551.148438 C 698.589844 551.140625 698.578125 551.117188 698.570312 551.085938 Z M 704.070312 539.828125 C 704.082031 539.828125 704.078125 539.839844 704.089844 539.839844 C 704.109375 539.863281 704.140625 539.875 704.160156 539.898438 L 704.230469 539.976562 L 704.078125 539.839844 C 704.070312 539.839844 704.070312 539.851562 704.058594 539.851562 C 704.070312 539.851562 704.070312 539.839844 704.070312 539.828125 Z M 698.699219 551.484375 C 698.660156 551.375 698.625 551.269531 698.597656 551.171875 C 698.644531 551.109375 698.6875 551.046875 698.734375 550.988281 C 698.652344 551.132812 698.632812 551.300781 698.699219 551.484375 Z M 699.0625 550.589844 C 699.121094 550.519531 699.175781 550.445312 699.230469 550.386719 C 699.242188 550.386719 699.242188 550.375 699.253906 550.375 C 699.1875 550.445312 699.121094 550.519531 699.0625 550.589844 Z M 669.472656 582.761719 C 669.472656 582.773438 669.460938 582.78125 669.460938 582.792969 C 669.460938 582.792969 669.449219 582.804688 669.449219 582.804688 C 669.441406 582.804688 669.429688 582.8125 669.417969 582.8125 C 669.429688 582.792969 669.453125 582.78125 669.472656 582.761719 Z M 670.914062 581.847656 C 670.933594 581.847656 670.953125 581.847656 670.964844 581.828125 C 670.945312 581.828125 670.921875 581.847656 670.914062 581.847656 Z M 680.113281 567.390625 C 680.140625 567.464844 680.179688 567.542969 680.238281 567.621094 C 680.1875 567.628906 680.132812 567.636719 680.078125 567.644531 C 680.09375 567.558594 680.097656 567.476562 680.113281 567.390625 Z M 677.675781 569.167969 C 677.582031 569.28125 677.453125 569.359375 677.289062 569.402344 C 677.289062 569.402344 677.289062 569.402344 677.292969 569.394531 C 677.441406 569.335938 677.574219 569.269531 677.675781 569.167969 Z M 677.675781 569.167969 " fill-opacity="1" fill-rule="nonzero"/></g></g></g></g><g clip-path="url(#a4fc161651)"><g clip-path="url(#b818e5d8b8)"><g clip-path="url(#be4cfd3f83)"><g clip-path="url(#d949743498)"><path fill="#ffffff" d="M 698.765625 547.21875 C 698.992188 546.921875 699.210938 546.625 699.4375 546.339844 C 698.984375 546.464844 698.765625 546.761719 698.765625 547.21875 Z M 698.765625 547.21875 " fill-opacity="1" fill-rule="nonzero"/></g></g></g></g><g clip-path="url(#992c712ac2)"><path fill="#ffffff" d="M 785.285156 388.511719 C 789.597656 388.511719 792.558594 389.511719 794.445312 390.601562 L 796.242188 384.429688 C 794.085938 383.339844 789.957031 382.160156 785.285156 382.160156 C 773.589844 382.160156 765.3125 388.824219 762.765625 398.738281 L 756.492188 398.738281 L 756.492188 403.371094 L 762.019531 403.371094 C 761.96875 404.066406 761.941406 404.769531 761.941406 405.484375 C 761.941406 406.199219 761.964844 406.832031 762.007812 407.488281 L 756.492188 407.488281 L 756.492188 412.121094 L 762.710938 412.121094 C 765.078125 421.792969 772.773438 427.898438 783.582031 427.898438 C 789.417969 427.898438 793.996094 426.445312 796.0625 425.359375 L 794.714844 419.367188 C 792.46875 420.367188 789.507812 421.546875 785.015625 421.546875 C 778.605469 421.546875 773.386719 418.082031 771.132812 412.121094 L 783.742188 412.121094 L 783.742188 407.488281 L 770.054688 407.488281 C 769.972656 406.726562 769.933594 405.933594 769.933594 405.121094 C 769.933594 404.53125 769.953125 403.945312 770 403.371094 L 783.742188 403.371094 L 783.742188 398.738281 L 770.902344 398.738281 C 772.871094 392.738281 777.777344 388.511719 785.285156 388.511719 Z M 785.285156 388.511719 " fill-opacity="1" fill-rule="nonzero"/></g><g fill="#ffffff" fill-opacity="1"><g transform="translate(649.939315, 115.058804)"><g><path d="M 5.359375 -25.96875 C 5.054688 -25.8125 4.273438 -25.460938 3.015625 -24.921875 C 2.804688 -24.835938 2.472656 -24.703125 2.015625 -24.515625 C 1.554688 -24.328125 1.179688 -24.15625 0.890625 -24 L 0.890625 -28.984375 C 4.109375 -30.648438 6.082031 -31.859375 6.8125 -32.609375 L 12.078125 -32.609375 L 12.078125 0 L 5.359375 0 Z M 5.359375 -25.96875 "/></g></g></g><g fill="#ffffff" fill-opacity="1"><g transform="translate(646.721332, 251.450636)"><g><path d="M 2.265625 -30.671875 L 10.265625 -30.671875 C 12.253906 -30.671875 13.945312 -30.460938 15.34375 -30.046875 C 16.75 -29.628906 17.878906 -28.828125 18.734375 -27.640625 C 19.597656 -26.453125 20.03125 -24.785156 20.03125 -22.640625 C 20.03125 -20.828125 19.640625 -19.414062 18.859375 -18.40625 C 18.078125 -17.394531 16.960938 -16.75 15.515625 -16.46875 C 17.285156 -16.238281 18.632812 -15.492188 19.5625 -14.234375 C 20.5 -12.972656 20.96875 -11.257812 20.96875 -9.09375 C 20.96875 -3.03125 17.878906 0 11.703125 0 L 2.265625 0 Z M 10.375 -18.40625 C 11.8125 -18.40625 12.785156 -18.734375 13.296875 -19.390625 C 13.816406 -20.046875 14.078125 -21.066406 14.078125 -22.453125 C 14.078125 -23.660156 13.75 -24.570312 13.09375 -25.1875 C 12.4375 -25.8125 11.476562 -26.125 10.21875 -26.125 L 9.046875 -26.125 L 9.046875 -18.40625 Z M 10.484375 -4.734375 C 11.921875 -4.734375 12.9375 -5.09375 13.53125 -5.8125 C 14.125 -6.53125 14.421875 -7.660156 14.421875 -9.203125 C 14.421875 -10.941406 14.125 -12.164062 13.53125 -12.875 C 12.9375 -13.582031 11.910156 -13.9375 10.453125 -13.9375 L 9.046875 -13.9375 L 9.046875 -4.734375 Z M 10.484375 -4.734375 "/></g></g></g><g fill="#ffffff" fill-opacity="1"><g transform="translate(641.224784, 681.981224)"><g><path d="M 11.0625 0.453125 C 7.726562 0.453125 5.359375 -0.421875 3.953125 -2.171875 C 2.554688 -3.929688 1.859375 -6.460938 1.859375 -9.765625 L 1.859375 -20.828125 C 1.859375 -24.203125 2.550781 -26.753906 3.9375 -28.484375 C 5.320312 -30.210938 7.695312 -31.078125 11.0625 -31.078125 C 14.257812 -31.078125 16.523438 -30.304688 17.859375 -28.765625 C 19.203125 -27.234375 19.875 -25.050781 19.875 -22.21875 L 19.875 -19.578125 L 13.25 -19.578125 L 13.25 -22.640625 C 13.25 -23.828125 13.125 -24.734375 12.875 -25.359375 C 12.625 -25.992188 12.019531 -26.3125 11.0625 -26.3125 C 10.09375 -26.3125 9.457031 -25.976562 9.15625 -25.3125 C 8.851562 -24.644531 8.703125 -23.71875 8.703125 -22.53125 L 8.703125 -8.109375 C 8.703125 -6.890625 8.859375 -5.957031 9.171875 -5.3125 C 9.492188 -4.675781 10.125 -4.359375 11.0625 -4.359375 C 11.988281 -4.359375 12.582031 -4.675781 12.84375 -5.3125 C 13.113281 -5.957031 13.25 -6.890625 13.25 -8.109375 L 13.25 -11.3125 L 19.875 -11.3125 L 19.875 -8.671875 C 19.875 -5.796875 19.203125 -3.554688 17.859375 -1.953125 C 16.523438 -0.347656 14.257812 0.453125 11.0625 0.453125 Z M 11.0625 0.453125 "/></g></g></g><g clip-path="url(#a75737b455)"><path fill="#ffffff" d="M 1100.46875 334.121094 C 1100.730469 334.007812 1100.808594 332.085938 1100.882812 331.785156 C 1100.921875 331.484375 1101.070312 329.5625 1101.335938 329.449219 C 1105.441406 327.417969 1109.621094 325.609375 1113.914062 324.027344 C 1130.449219 317.960938 1148.984375 315.289062 1166.160156 320.183594 C 1180.285156 324.214844 1193.355469 333.292969 1200.738281 346.136719 C 1204.65625 352.917969 1206.6875 360.640625 1206.726562 368.4375 C 1206.765625 372.203125 1206.238281 375.894531 1205.597656 379.546875 C 1204.917969 383.351562 1204.128906 387.082031 1202.847656 390.734375 C 1197.386719 406.292969 1185.332031 418.269531 1170.71875 425.503906 C 1154.484375 433.527344 1136.101562 435.558594 1118.210938 434.128906 C 1108.679688 433.335938 1099.1875 431.679688 1089.921875 429.382812 C 1082.765625 427.648438 1075.71875 425.390625 1069.015625 422.339844 C 1056.019531 416.425781 1043.929688 406.855469 1039.671875 392.695312 C 1037.148438 384.332031 1037.976562 375.96875 1039.636719 367.570312 C 1041.253906 359.394531 1044.757812 351.824219 1049.65625 345.121094 C 1059.675781 331.484375 1074.589844 321.503906 1089.921875 314.722656 C 1106.117188 307.566406 1123.859375 304.0625 1141.5625 304.441406 C 1141.335938 304.441406 1140.996094 309.148438 1140.695312 309.148438 C 1136.515625 309.035156 1132.296875 309.148438 1128.117188 309.488281 C 1111.390625 310.84375 1094.96875 315.738281 1080.242188 323.726562 C 1066.117188 331.410156 1052.59375 342.03125 1044.644531 356.269531 C 1042.648438 359.886719 1041.027344 363.691406 1039.898438 367.644531 C 1039.671875 368.472656 1039.484375 369.339844 1039.257812 370.207031 C 1038.769531 372.050781 1039.484375 368.398438 1039.335938 369.679688 C 1039.222656 370.808594 1039.03125 371.941406 1038.957031 373.070312 C 1038.808594 375.027344 1038.808594 377.023438 1038.957031 378.984375 C 1039.445312 386.554688 1042.082031 393.785156 1046.605469 399.886719 C 1054.890625 411.113281 1068.148438 417.667969 1081.105469 421.886719 C 1088.753906 424.371094 1096.664062 426.105469 1104.574219 427.5 C 1113.992188 429.117188 1123.558594 430.058594 1133.125 429.757812 C 1149.433594 429.308594 1165.820312 425.238281 1179.570312 416.199219 C 1186.125 411.867188 1191.960938 406.441406 1196.519531 400.039062 C 1198.78125 396.800781 1200.738281 393.371094 1202.28125 389.757812 C 1203.074219 387.910156 1203.789062 386.027344 1204.390625 384.105469 C 1204.691406 383.164062 1204.957031 382.222656 1205.183594 381.28125 C 1205.296875 380.792969 1205.410156 380.300781 1205.523438 379.8125 C 1205.9375 378.078125 1205.296875 381.695312 1205.484375 379.925781 C 1206.273438 372.203125 1205.824219 364.667969 1203.035156 357.324219 C 1200.550781 350.769531 1196.519531 344.855469 1191.546875 339.960938 C 1180.886719 329.375 1166.386719 323.460938 1151.46875 322.445312 C 1133.804688 321.277344 1116.210938 326.363281 1100.46875 334.121094 Z M 1100.46875 334.121094 " fill-opacity="1" fill-rule="nonzero"/></g><g clip-path="url(#4e6285bb2e)"><path fill="#ffffff" d="M 1096.40625 327.382812 C 1096.722656 327.246094 1096.8125 324.960938 1096.902344 324.605469 C 1096.945312 324.246094 1097.125 321.960938 1097.4375 321.828125 C 1102.320312 319.410156 1107.289062 317.261719 1112.394531 315.378906 C 1132.054688 308.167969 1154.089844 304.988281 1174.511719 310.8125 C 1191.304688 315.601562 1206.84375 326.394531 1215.621094 341.667969 C 1220.28125 349.726562 1222.699219 358.910156 1222.742188 368.179688 C 1222.789062 372.65625 1222.160156 377.046875 1221.398438 381.390625 C 1220.59375 385.914062 1219.652344 390.347656 1218.128906 394.691406 C 1211.636719 413.1875 1197.304688 427.429688 1179.929688 436.027344 C 1160.628906 445.566406 1138.773438 447.984375 1117.5 446.28125 C 1106.171875 445.339844 1094.886719 443.371094 1083.867188 440.640625 C 1075.359375 438.578125 1066.984375 435.890625 1059.015625 432.265625 C 1043.5625 425.234375 1029.1875 413.859375 1024.128906 397.019531 C 1021.125 387.078125 1022.113281 377.136719 1024.082031 367.148438 C 1026.007812 357.429688 1030.171875 348.429688 1035.996094 340.457031 C 1047.90625 324.246094 1065.640625 312.378906 1083.867188 304.316406 C 1103.125 295.808594 1124.21875 291.644531 1145.265625 292.089844 C 1145 292.089844 1144.59375 297.691406 1144.238281 297.691406 C 1139.265625 297.554688 1134.25 297.691406 1129.28125 298.09375 C 1109.394531 299.703125 1089.871094 305.527344 1072.359375 315.019531 C 1055.566406 324.15625 1039.488281 336.785156 1030.039062 353.714844 C 1027.664062 358.011719 1025.738281 362.535156 1024.394531 367.238281 C 1024.128906 368.222656 1023.902344 369.253906 1023.632812 370.285156 C 1023.050781 372.476562 1023.902344 368.132812 1023.722656 369.65625 C 1023.589844 371 1023.367188 372.34375 1023.277344 373.6875 C 1023.097656 376.015625 1023.097656 378.390625 1023.277344 380.71875 C 1023.859375 389.71875 1026.992188 398.320312 1032.367188 405.574219 C 1042.21875 418.917969 1057.984375 426.710938 1073.390625 431.726562 C 1082.480469 434.683594 1091.886719 436.742188 1101.289062 438.398438 C 1112.484375 440.324219 1123.859375 441.445312 1135.234375 441.085938 C 1154.625 440.550781 1174.109375 435.710938 1190.453125 424.964844 C 1198.246094 419.816406 1205.1875 413.367188 1210.605469 405.753906 C 1213.292969 401.902344 1215.621094 397.824219 1217.457031 393.527344 C 1218.398438 391.332031 1219.25 389.09375 1219.964844 386.808594 C 1220.324219 385.691406 1220.636719 384.570312 1220.90625 383.449219 C 1221.042969 382.867188 1221.175781 382.285156 1221.308594 381.703125 C 1221.800781 379.644531 1221.042969 383.941406 1221.265625 381.839844 C 1222.207031 372.65625 1221.667969 363.699219 1218.355469 354.96875 C 1215.398438 347.175781 1210.605469 340.144531 1204.695312 334.324219 C 1192.019531 321.738281 1174.78125 314.707031 1157.046875 313.5 C 1136.042969 312.109375 1115.128906 318.15625 1096.40625 327.382812 Z M 1096.40625 327.382812 " fill-opacity="1" fill-rule="nonzero"/></g><g fill="#ffffff" fill-opacity="1"><g transform="translate(1115.64713, 388.545721)"><g><path d="M 2.265625 -30.671875 L 10.03125 -30.671875 C 12.6875 -30.671875 14.753906 -30.34375 16.234375 -29.6875 C 17.722656 -29.03125 18.773438 -28 19.390625 -26.59375 C 20.015625 -25.195312 20.328125 -23.320312 20.328125 -20.96875 L 20.328125 -9.84375 C 20.328125 -7.46875 20.015625 -5.570312 19.390625 -4.15625 C 18.773438 -2.75 17.726562 -1.703125 16.25 -1.015625 C 14.78125 -0.335938 12.734375 0 10.109375 0 L 2.265625 0 Z M 10.109375 -4.6875 C 11.085938 -4.6875 11.8125 -4.832031 12.28125 -5.125 C 12.75 -5.414062 13.046875 -5.832031 13.171875 -6.375 C 13.296875 -6.914062 13.359375 -7.71875 13.359375 -8.78125 L 13.359375 -22.140625 C 13.359375 -23.128906 13.289062 -23.878906 13.15625 -24.390625 C 13.019531 -24.910156 12.71875 -25.296875 12.25 -25.546875 C 11.78125 -25.804688 11.054688 -25.9375 10.078125 -25.9375 L 9.046875 -25.9375 L 9.046875 -4.6875 Z M 10.109375 -4.6875 "/></g></g></g><g clip-path="url(#d0f3b91792)"><g clip-path="url(#d15f354bde)"><g clip-path="url(#e9ce764d6e)"><g clip-path="url(#f5999e5db0)"><path fill="#ffffff" d="M 791.972656 669.707031 C 791.996094 669.945312 792.125 670.113281 792.335938 670.21875 C 792.355469 671.039062 791.109375 671.511719 791.722656 672.503906 C 791.585938 675.070312 793.339844 675.984375 795.371094 676.621094 C 801.066406 678.398438 806.929688 679.210938 812.847656 679.664062 C 834.039062 681.269531 854.574219 678.375 874.796875 671.804688 C 910.105469 660.347656 937.476562 638.464844 959.140625 608.949219 C 969.1875 595.265625 976.648438 580.074219 983.402344 564.539062 C 987.375 555.402344 990.78125 546.0625 994.417969 536.796875 C 994.398438 536.40625 994.375 536.023438 994.359375 535.632812 C 994.675781 535.324219 994.9375 534.882812 995.3125 534.761719 C 995.3125 534.761719 995.3125 534.761719 995.324219 534.761719 C 995.621094 534.671875 995.75 535.09375 995.617188 535.429688 C 996.6875 539.191406 996.925781 543.054688 996.960938 546.925781 C 996.984375 549.578125 997.203125 552.148438 998.199219 554.628906 C 998.207031 560.335938 1001.152344 563.792969 1006.324219 564.449219 C 1011.449219 554.296875 1010.601562 543.703125 1008.859375 533 C 1008.214844 529.019531 1007.839844 525.007812 1007.402344 521 C 1006.363281 511.402344 1005.972656 512.851562 998.816406 509.59375 C 997.21875 508.867188 995.476562 508.519531 993.710938 508.355469 C 993.0625 508.292969 992.460938 508.296875 991.949219 508.757812 C 990.078125 508.027344 988.816406 509.136719 987.640625 510.28125 C 984.148438 513.675781 980.703125 517.113281 977.234375 520.535156 C 976.101562 520.804688 975.429688 521.640625 974.792969 522.511719 C 973.644531 522.738281 972.980469 523.59375 972.289062 524.410156 C 971.449219 524.4375 970.992188 525.121094 970.382812 525.535156 C 962.109375 531.125 953.324219 535.703125 943.78125 538.765625 C 943.058594 538.996094 942.367188 539.285156 941.65625 539.546875 C 940.8125 539.847656 939.855469 540.1875 939.886719 541.210938 C 939.914062 541.984375 940.734375 542.6875 941.390625 542.757812 C 944.296875 543.082031 946.535156 545.125 949.3125 545.683594 C 950.546875 545.933594 951.78125 545.660156 953.027344 545.355469 C 962.667969 543.070312 971.632812 539.140625 980.214844 534.285156 C 980.980469 533.847656 981.699219 533.285156 982.527344 533.023438 C 983.492188 532.71875 983.820312 533.472656 983.945312 534.296875 C 983.121094 534.875 982.863281 535.648438 983.105469 536.605469 C 982.464844 537.28125 981.890625 537.988281 982.191406 539.023438 C 981.949219 539.097656 981.882812 539.25 981.992188 539.472656 C 981.359375 540.101562 980.871094 540.785156 981.097656 541.753906 C 980.761719 542.273438 980.347656 542.753906 980.105469 543.324219 C 977.4375 549.542969 974.871094 555.800781 972.132812 561.988281 C 969.648438 567.605469 966.992188 573.136719 964.402344 578.699219 C 963.539062 580.085938 962.628906 581.433594 961.828125 582.847656 C 953.953125 596.53125 944.546875 609.058594 933.289062 620.140625 C 929.261719 624.097656 925.125 627.925781 921.03125 631.808594 C 919.835938 632.078125 919.179688 632.992188 918.503906 633.898438 C 917.351562 634.128906 916.714844 634.988281 916.0625 635.847656 C 914.949219 635.988281 914.386719 636.859375 913.71875 637.597656 C 912.976562 637.621094 912.527344 638.066406 912.199219 638.671875 C 911.929688 638.699219 911.757812 638.839844 911.6875 639.105469 C 910.863281 639.148438 910.398438 639.8125 909.785156 640.203125 C 906.730469 642.132812 904.042969 644.601562 900.75 646.15625 C 900.714844 646.582031 900.050781 647.382812 901.339844 646.933594 C 902.207031 646.636719 902.410156 646.789062 902.382812 647.101562 C 902.355469 647.367188 902.148438 647.753906 902.027344 648.066406 C 892.199219 653.859375 881.789062 658.394531 871.070312 662.246094 C 870.042969 662.507812 869.011719 662.78125 867.984375 663.046875 C 861.84375 664.628906 855.699219 666.21875 849.566406 667.808594 C 849.324219 667.707031 849.097656 667.691406 848.886719 667.761719 C 848.742188 667.808594 848.613281 667.886719 848.484375 668 C 848.089844 667.832031 847.738281 667.90625 847.433594 668.195312 C 847.039062 668.011719 846.6875 668.082031 846.382812 668.386719 C 845.988281 668.1875 845.636719 668.261719 845.324219 668.570312 C 844.929688 668.375 844.574219 668.425781 844.265625 668.742188 C 843.875 668.53125 843.523438 668.589844 843.214844 668.90625 L 843.203125 668.90625 C 842.824219 668.695312 842.464844 668.746094 842.167969 669.058594 L 842.144531 669.0625 C 841.804688 669.089844 841.453125 669.132812 841.109375 669.199219 L 841.074219 669.207031 C 840.695312 668.996094 840.355469 669.03125 840.039062 669.34375 L 840.003906 669.347656 C 839.625 669.136719 839.285156 669.175781 838.96875 669.484375 L 838.933594 669.488281 C 838.933594 669.488281 838.921875 669.488281 838.921875 669.488281 C 838.921875 669.488281 838.933594 669.488281 838.933594 669.488281 C 838.554688 669.265625 838.207031 669.308594 837.894531 669.621094 L 837.871094 669.625 C 837.492188 669.398438 837.144531 669.445312 836.832031 669.753906 L 836.816406 669.753906 C 836.429688 669.535156 836.074219 669.574219 835.753906 669.875 C 832.464844 670.050781 829.179688 670.214844 825.890625 670.390625 C 824.207031 671.019531 822.449219 670.78125 820.71875 670.792969 C 820.621094 670.609375 820.578125 670.429688 820.566406 670.25 C 820.546875 669.972656 820.609375 669.714844 820.769531 669.445312 C 819.464844 669.316406 818.167969 669.082031 816.882812 669.554688 C 816.503906 669.734375 816.113281 669.855469 815.683594 669.808594 C 816.078125 669.722656 816.480469 669.644531 816.882812 669.554688 C 816.46875 669.425781 816.070312 669.355469 815.765625 669.722656 C 815.242188 669.320312 814.675781 669.304688 814.070312 669.527344 C 813.734375 669.261719 813.394531 669.214844 813.050781 669.5 C 812.648438 669.324219 812.261719 669.253906 811.878906 669.53125 C 811.691406 669.414062 811.503906 669.371094 811.28125 669.449219 C 810.027344 669.09375 808.769531 669.011719 807.492188 669.234375 C 806.59375 669.03125 805.699219 668.800781 804.777344 669.078125 C 804.253906 668.738281 803.675781 668.828125 803.109375 668.871094 C 799.574219 668.058594 795.917969 667.902344 792.382812 666.355469 C 792.433594 667.710938 791.230469 668.554688 791.972656 669.707031 Z M 982.585938 539.9375 C 982.578125 539.945312 982.578125 539.945312 982.570312 539.953125 C 982.578125 539.960938 982.585938 539.953125 982.585938 539.953125 C 982.578125 539.960938 982.5625 539.957031 982.5625 539.957031 C 982.5625 539.957031 982.570312 539.953125 982.570312 539.953125 C 982.5625 539.945312 982.558594 539.9375 982.542969 539.9375 C 982.566406 539.929688 982.570312 539.9375 982.585938 539.9375 Z M 838.34375 671.671875 C 838.429688 671.675781 838.515625 671.679688 838.597656 671.683594 C 838.578125 671.691406 838.554688 671.695312 838.535156 671.703125 C 838.460938 671.710938 838.390625 671.722656 838.3125 671.726562 C 838.320312 671.71875 838.328125 671.699219 838.34375 671.671875 Z M 849.519531 667.851562 C 849.527344 667.859375 849.519531 667.863281 849.527344 667.871094 C 849.527344 667.898438 849.539062 667.929688 849.535156 667.957031 L 849.53125 668.054688 L 849.519531 667.863281 C 849.511719 667.855469 849.507812 667.863281 849.5 667.855469 C 849.507812 667.863281 849.511719 667.855469 849.519531 667.851562 Z M 838.164062 672.023438 C 838.210938 671.925781 838.257812 671.828125 838.304688 671.746094 C 838.375 671.734375 838.449219 671.726562 838.519531 671.714844 C 838.367188 671.757812 838.242188 671.855469 838.164062 672.023438 Z M 839.003906 671.667969 C 839.089844 671.660156 839.175781 671.652344 839.253906 671.648438 C 839.257812 671.65625 839.265625 671.648438 839.273438 671.65625 C 839.179688 671.65625 839.089844 671.660156 839.003906 671.667969 Z M 797.804688 673.320312 C 797.796875 673.324219 797.78125 673.324219 797.773438 673.332031 C 797.773438 673.332031 797.761719 673.332031 797.761719 673.332031 C 797.753906 673.324219 797.738281 673.324219 797.734375 673.316406 C 797.753906 673.308594 797.777344 673.316406 797.804688 673.320312 Z M 799.375 673.671875 C 799.386719 673.6875 799.402344 673.703125 799.421875 673.695312 C 799.410156 673.679688 799.382812 673.679688 799.375 673.671875 Z M 815.15625 670.191406 C 815.125 670.261719 815.097656 670.339844 815.085938 670.429688 C 815.046875 670.398438 815.003906 670.371094 814.964844 670.339844 C 815.03125 670.292969 815.089844 670.238281 815.15625 670.191406 Z M 812.34375 669.746094 C 812.207031 669.761719 812.066406 669.726562 811.929688 669.648438 C 811.929688 669.648438 811.929688 669.648438 811.9375 669.640625 C 812.074219 669.703125 812.207031 669.746094 812.34375 669.746094 Z M 812.34375 669.746094 " fill-opacity="1" fill-rule="nonzero"/></g></g></g></g><g clip-path="url(#6fa0e1ab24)"><g clip-path="url(#6dd525bf54)"><g clip-path="url(#7249a835b1)"><g clip-path="url(#96033033e7)"><path fill="#ffffff" d="M 841.054688 669.226562 C 841.402344 669.179688 841.746094 669.128906 842.085938 669.089844 C 841.703125 668.871094 841.359375 668.921875 841.054688 669.226562 Z M 841.054688 669.226562 " fill-opacity="1" fill-rule="nonzero"/></g></g></g></g><g clip-path="url(#5b7035e334)"><g clip-path="url(#01bf221c69)"><g clip-path="url(#7d4e0d5407)"><g clip-path="url(#a8f3372652)"><path fill="#ffffff" d="M 1029.722656 444.734375 C 1029.679688 444.492188 1029.535156 444.332031 1029.304688 444.246094 C 1029.214844 443.402344 1030.445312 442.804688 1029.730469 441.84375 C 1029.640625 439.199219 1027.757812 438.417969 1025.613281 437.949219 C 1019.613281 436.648438 1013.523438 436.347656 1007.410156 436.421875 C 985.523438 436.703125 964.714844 441.539062 944.558594 450.121094 C 909.363281 465.09375 883.25 490.03125 863.679688 522.289062 C 854.605469 537.242188 848.316406 553.503906 842.785156 570.058594 C 839.53125 579.792969 836.878906 589.6875 833.980469 599.523438 C 834.03125 599.921875 834.089844 600.3125 834.140625 600.714844 C 833.847656 601.058594 833.617188 601.535156 833.246094 601.695312 C 833.246094 601.695312 833.246094 601.695312 833.230469 601.695312 C 832.9375 601.816406 832.765625 601.390625 832.871094 601.035156 C 831.4375 597.273438 830.84375 593.332031 830.460938 589.363281 C 830.195312 586.644531 829.742188 584.023438 828.496094 581.574219 C 827.976562 575.71875 824.640625 572.441406 819.277344 572.238281 C 814.929688 583.117188 816.753906 593.910156 819.503906 604.734375 C 820.523438 608.761719 821.269531 612.839844 822.078125 616.914062 C 824.007812 626.664062 824.28125 625.144531 831.910156 627.832031 C 833.621094 628.433594 835.4375 628.632812 837.261719 628.640625 C 837.933594 628.644531 838.550781 628.585938 839.035156 628.066406 C 841.019531 628.644531 842.210938 627.390625 843.316406 626.109375 C 846.59375 622.308594 849.820312 618.472656 853.070312 614.640625 C 854.207031 614.265625 854.824219 613.34375 855.398438 612.390625 C 856.554688 612.058594 857.160156 611.117188 857.796875 610.21875 C 858.65625 610.113281 859.066406 609.371094 859.652344 608.890625 C 867.636719 602.402344 876.238281 596.90625 885.753906 592.894531 C 886.472656 592.59375 887.160156 592.230469 887.863281 591.898438 C 888.699219 591.511719 889.65625 591.078125 889.527344 590.03125 C 889.433594 589.238281 888.523438 588.59375 887.847656 588.582031 C 884.835938 588.515625 882.359375 586.617188 879.457031 586.300781 C 878.167969 586.15625 876.925781 586.550781 875.671875 586.976562 C 865.988281 590.195312 857.144531 595.042969 848.777344 600.808594 C 848.027344 601.324219 847.34375 601.96875 846.519531 602.3125 C 845.554688 602.710938 845.148438 601.96875 844.949219 601.136719 C 845.742188 600.464844 845.9375 599.648438 845.601562 598.691406 C 846.199219 597.9375 846.726562 597.160156 846.320312 596.125 C 846.566406 596.027344 846.617188 595.867188 846.488281 595.644531 C 847.082031 594.945312 847.519531 594.199219 847.199219 593.226562 C 847.496094 592.660156 847.878906 592.128906 848.074219 591.523438 C 850.253906 584.902344 852.324219 578.246094 854.578125 571.652344 C 856.621094 565.660156 858.847656 559.742188 861.003906 553.800781 C 861.761719 552.300781 862.578125 550.832031 863.269531 549.3125 C 870.121094 534.554688 878.640625 520.847656 889.199219 508.453125 C 892.972656 504.027344 896.875 499.722656 900.722656 495.367188 C 901.925781 494.980469 902.515625 493.980469 903.128906 492.988281 C 904.289062 492.648438 904.867188 491.707031 905.460938 490.769531 C 906.589844 490.523438 907.085938 489.578125 907.703125 488.761719 C 908.464844 488.667969 908.886719 488.171875 909.167969 487.519531 C 909.441406 487.464844 909.605469 487.308594 909.652344 487.027344 C 910.496094 486.910156 910.914062 486.1875 911.507812 485.730469 C 914.464844 483.46875 917 480.695312 920.242188 478.796875 C 920.242188 478.359375 920.847656 477.476562 919.566406 478.054688 C 918.703125 478.4375 918.480469 478.300781 918.480469 477.976562 C 918.488281 477.699219 918.660156 477.285156 918.757812 476.953125 C 928.320312 470.117188 938.59375 464.519531 949.242188 459.589844 C 950.273438 459.226562 951.308594 458.851562 952.339844 458.488281 C 958.496094 456.304688 964.65625 454.113281 970.804688 451.921875 C 971.066406 452.007812 971.296875 452 971.507812 451.914062 C 971.648438 451.847656 971.777344 451.757812 971.898438 451.628906 C 972.320312 451.765625 972.671875 451.660156 972.957031 451.335938 C 973.378906 451.488281 973.734375 451.378906 974.019531 451.042969 C 974.441406 451.210938 974.796875 451.101562 975.089844 450.753906 C 975.511719 450.921875 975.875 450.835938 976.160156 450.484375 C 976.582031 450.664062 976.9375 450.574219 977.222656 450.21875 L 977.234375 450.21875 C 977.644531 450.402344 978.007812 450.316406 978.285156 449.96875 L 978.304688 449.960938 C 978.65625 449.90625 979.007812 449.828125 979.355469 449.726562 L 979.390625 449.71875 C 979.800781 449.902344 980.148438 449.832031 980.441406 449.484375 L 980.476562 449.476562 C 980.886719 449.65625 981.234375 449.585938 981.527344 449.242188 L 981.5625 449.230469 C 981.5625 449.230469 981.578125 449.230469 981.578125 449.230469 C 981.578125 449.230469 981.5625 449.230469 981.5625 449.230469 C 981.972656 449.429688 982.324219 449.351562 982.617188 449.003906 L 982.640625 448.996094 C 983.050781 449.195312 983.402344 449.117188 983.695312 448.769531 L 983.710938 448.769531 C 984.128906 448.957031 984.488281 448.886719 984.789062 448.546875 C 988.152344 448.070312 991.503906 447.597656 994.863281 447.121094 C 996.535156 446.324219 998.359375 446.40625 1000.136719 446.238281 C 1000.25 446.417969 1000.308594 446.597656 1000.339844 446.777344 C 1000.386719 447.0625 1000.34375 447.332031 1000.203125 447.621094 C 1001.550781 447.640625 1002.90625 447.757812 1004.183594 447.160156 C 1004.554688 446.941406 1004.941406 446.78125 1005.386719 446.789062 C 1004.992188 446.910156 1004.585938 447.027344 1004.183594 447.160156 C 1004.617188 447.253906 1005.035156 447.289062 1005.3125 446.886719 C 1005.886719 447.25 1006.46875 447.214844 1007.070312 446.929688 C 1007.4375 447.171875 1007.789062 447.191406 1008.121094 446.863281 C 1008.546875 447.011719 1008.949219 447.046875 1009.316406 446.726562 C 1009.519531 446.828125 1009.71875 446.859375 1009.9375 446.753906 C 1011.253906 447.007812 1012.550781 446.976562 1013.84375 446.628906 C 1014.785156 446.757812 1015.722656 446.914062 1016.644531 446.542969 C 1017.210938 446.84375 1017.796875 446.699219 1018.375 446.605469 C 1022.070312 447.117188 1025.839844 446.945312 1029.605469 448.210938 C 1029.429688 446.824219 1030.589844 445.847656 1029.722656 444.734375 Z M 845.835938 595.222656 C 845.84375 595.214844 845.84375 595.214844 845.851562 595.207031 C 845.84375 595.203125 845.835938 595.210938 845.835938 595.210938 C 845.84375 595.203125 845.855469 595.199219 845.855469 595.199219 C 845.855469 595.199219 845.851562 595.207031 845.851562 595.207031 C 845.855469 595.214844 845.863281 595.222656 845.878906 595.222656 C 845.859375 595.230469 845.851562 595.222656 845.835938 595.222656 Z M 981.972656 446.941406 C 981.882812 446.945312 981.796875 446.949219 981.710938 446.949219 C 981.730469 446.941406 981.753906 446.933594 981.773438 446.925781 C 981.847656 446.910156 981.917969 446.890625 982 446.882812 C 981.992188 446.890625 981.984375 446.910156 981.972656 446.941406 Z M 970.847656 451.878906 C 970.839844 451.871094 970.847656 451.863281 970.839844 451.855469 C 970.839844 451.828125 970.824219 451.800781 970.824219 451.769531 L 970.820312 451.667969 L 970.847656 451.863281 C 970.855469 451.871094 970.863281 451.863281 970.871094 451.871094 C 970.863281 451.863281 970.855469 451.871094 970.847656 451.878906 Z M 982.125 446.5625 C 982.085938 446.667969 982.046875 446.769531 982.003906 446.859375 C 981.933594 446.878906 981.859375 446.894531 981.789062 446.910156 C 981.9375 446.855469 982.058594 446.742188 982.125 446.5625 Z M 981.296875 447.003906 C 981.207031 447.019531 981.121094 447.039062 981.042969 447.046875 C 981.035156 447.039062 981.027344 447.046875 981.019531 447.042969 C 981.113281 447.03125 981.207031 447.019531 981.296875 447.003906 Z M 1023.417969 441.558594 C 1023.421875 441.550781 1023.4375 441.550781 1023.445312 441.542969 C 1023.445312 441.542969 1023.460938 441.542969 1023.460938 441.542969 C 1023.46875 441.550781 1023.480469 441.550781 1023.488281 441.558594 C 1023.46875 441.566406 1023.445312 441.558594 1023.417969 441.558594 Z M 1021.773438 441.339844 C 1021.757812 441.328125 1021.742188 441.3125 1021.722656 441.320312 C 1021.738281 441.335938 1021.765625 441.335938 1021.773438 441.339844 Z M 1005.894531 446.347656 C 1005.921875 446.273438 1005.941406 446.191406 1005.945312 446.097656 C 1005.988281 446.125 1006.035156 446.152344 1006.078125 446.179688 C 1006.015625 446.234375 1005.960938 446.292969 1005.894531 446.347656 Z M 1008.824219 446.546875 C 1008.960938 446.519531 1009.105469 446.542969 1009.253906 446.613281 C 1009.253906 446.613281 1009.253906 446.613281 1009.25 446.621094 C 1009.101562 446.566406 1008.960938 446.535156 1008.824219 446.546875 Z M 1008.824219 446.546875 " fill-opacity="1" fill-rule="nonzero"/></g></g></g></g><g clip-path="url(#73eddf1ea4)"><g clip-path="url(#d866a8f319)"><g clip-path="url(#13863cc957)"><g clip-path="url(#f6fff98964)"><path fill="#ffffff" d="M 979.414062 449.695312 C 979.058594 449.773438 978.710938 449.859375 978.363281 449.929688 C 978.777344 450.121094 979.125 450.035156 979.414062 449.695312 Z M 979.414062 449.695312 " fill-opacity="1" fill-rule="nonzero"/></g></g></g></g><g clip-path="url(#d5ec9a0036)"><g clip-path="url(#67563454d5)"><g clip-path="url(#ef5e64f668)"><g clip-path="url(#0b5e276a27)"><path fill="#ffffff" d="M 759.875 207.117188 C 759.835938 206.882812 759.917969 206.683594 760.101562 206.527344 C 759.90625 205.71875 758.566406 205.574219 758.910156 204.453125 C 758.121094 201.976562 759.601562 200.636719 761.421875 199.492188 C 766.535156 196.304688 772.058594 194.011719 777.730469 192.058594 C 798.035156 185.074219 818.855469 182.660156 840.3125 183.914062 C 877.773438 186.09375 910.148438 200.484375 938.90625 223.796875 C 952.238281 234.601562 963.429688 247.539062 974.019531 261 C 980.246094 268.910156 985.972656 277.167969 991.90625 285.292969 C 991.992188 285.679688 992.066406 286.0625 992.152344 286.449219 C 992.539062 286.671875 992.90625 287.03125 993.304688 287.054688 C 993.304688 287.054688 993.304688 287.054688 993.320312 287.050781 C 993.628906 287.066406 993.644531 286.617188 993.433594 286.324219 C 993.511719 282.375 992.753906 278.539062 991.792969 274.746094 C 991.136719 272.148438 990.691406 269.578125 991.03125 266.902344 C 989.574219 261.324219 991.566406 257.191406 996.453125 255.230469 C 1004.070312 263.839844 1005.957031 274.410156 1007.003906 285.316406 C 1007.394531 289.371094 1008.054688 293.386719 1008.65625 297.414062 C 1010.101562 307.058594 1009.347656 305.746094 1003.191406 310.753906 C 1001.8125 311.875 1000.199219 312.660156 998.519531 313.269531 C 997.898438 313.496094 997.308594 313.648438 996.691406 313.328125 C 995.050781 314.515625 993.53125 313.753906 992.089844 312.9375 C 987.800781 310.511719 983.550781 308.035156 979.28125 305.574219 C 978.105469 305.601562 977.234375 304.957031 976.386719 304.265625 C 975.210938 304.339844 974.335938 303.671875 973.449219 303.054688 C 972.625 303.242188 972 302.6875 971.296875 302.441406 C 961.777344 299.089844 952.015625 296.859375 941.898438 296.304688 C 941.132812 296.261719 940.378906 296.15625 939.621094 296.085938 C 938.71875 296.003906 937.691406 295.917969 937.464844 294.910156 C 937.289062 294.148438 937.914062 293.25 938.535156 293.015625 C 941.292969 291.957031 942.957031 289.386719 945.527344 288.128906 C 946.671875 287.570312 947.949219 287.523438 949.246094 287.503906 C 959.257812 287.273438 969.03125 288.824219 978.667969 291.378906 C 979.53125 291.605469 980.375 291.976562 981.25 292.019531 C 982.273438 292.070312 982.402344 291.246094 982.3125 290.414062 C 981.355469 290.058594 980.90625 289.367188 980.898438 288.371094 C 980.097656 287.875 979.355469 287.332031 979.382812 286.242188 C 979.125 286.234375 979.023438 286.101562 979.074219 285.851562 C 978.292969 285.402344 977.640625 284.859375 977.617188 283.855469 C 977.152344 283.429688 976.625 283.066406 976.242188 282.570312 C 972.035156 277.175781 967.921875 271.714844 963.65625 266.371094 C 959.785156 261.515625 955.769531 256.789062 951.8125 252.011719 C 950.613281 250.878906 949.375 249.792969 948.230469 248.617188 C 937.019531 237.253906 924.609375 227.417969 910.753906 219.460938 C 905.804688 216.625 900.777344 213.9375 895.78125 211.191406 C 894.539062 211.234375 893.664062 210.503906 892.769531 209.792969 C 891.585938 209.859375 890.742188 209.183594 889.882812 208.511719 C 888.757812 208.660156 887.988281 207.953125 887.144531 207.402344 C 886.410156 207.566406 885.859375 207.246094 885.382812 206.738281 C 885.109375 206.78125 884.910156 206.6875 884.773438 206.445312 C 883.957031 206.613281 883.328125 206.085938 882.628906 205.859375 C 879.148438 204.75 875.886719 203.027344 872.265625 202.347656 C 872.121094 201.945312 871.269531 201.332031 872.644531 201.441406 C 873.566406 201.507812 873.730469 201.304688 873.621094 201.007812 C 873.523438 200.753906 873.226562 200.429688 873.027344 200.15625 C 861.933594 197.003906 850.589844 195.234375 839.121094 194.207031 C 838.050781 194.210938 836.96875 194.210938 835.898438 194.214844 C 829.488281 194.234375 823.074219 194.25 816.667969 194.261719 C 816.457031 194.425781 816.238281 194.496094 816.019531 194.484375 C 815.863281 194.472656 815.714844 194.429688 815.5625 194.351562 C 815.222656 194.617188 814.859375 194.636719 814.488281 194.429688 C 814.148438 194.710938 813.785156 194.730469 813.410156 194.511719 C 813.074219 194.804688 812.710938 194.824219 812.328125 194.601562 C 811.992188 194.894531 811.628906 194.933594 811.25 194.703125 C 810.917969 195.011719 810.5625 195.042969 810.179688 194.8125 L 810.167969 194.816406 C 809.851562 195.117188 809.488281 195.160156 809.117188 194.933594 L 809.09375 194.933594 C 808.753906 194.996094 808.398438 195.039062 808.046875 195.0625 L 808.011719 195.066406 C 807.695312 195.371094 807.347656 195.417969 806.964844 195.195312 L 806.925781 195.199219 C 806.609375 195.503906 806.265625 195.554688 805.878906 195.332031 L 805.84375 195.335938 C 805.84375 195.335938 805.832031 195.339844 805.832031 195.339844 C 805.832031 195.339844 805.84375 195.335938 805.84375 195.335938 C 805.53125 195.652344 805.179688 195.699219 804.792969 195.476562 L 804.769531 195.476562 C 804.457031 195.792969 804.105469 195.835938 803.71875 195.613281 L 803.707031 195.617188 C 803.382812 195.929688 803.027344 195.984375 802.636719 195.769531 C 799.375 196.441406 796.121094 197.117188 792.859375 197.789062 C 791.054688 197.605469 789.394531 198.285156 787.699219 198.71875 C 787.652344 198.921875 787.65625 199.105469 787.691406 199.28125 C 787.742188 199.558594 787.867188 199.796875 788.097656 200.015625 C 786.855469 200.480469 785.644531 201.039062 784.265625 200.90625 C 783.851562 200.828125 783.441406 200.808594 783.03125 200.960938 C 783.4375 200.945312 783.851562 200.917969 784.265625 200.90625 C 783.894531 201.136719 783.523438 201.308594 783.132812 201.027344 C 782.722656 201.554688 782.171875 201.714844 781.523438 201.652344 C 781.265625 201.996094 780.945312 202.128906 780.535156 201.9375 C 780.183594 202.210938 779.824219 202.378906 779.378906 202.207031 C 779.230469 202.367188 779.054688 202.460938 778.816406 202.4375 C 777.683594 203.105469 776.476562 203.507812 775.167969 203.613281 C 774.34375 204.042969 773.527344 204.5 772.554688 204.460938 C 772.132812 204.925781 771.542969 204.988281 770.976562 205.09375 C 767.730469 206.785156 764.195312 207.875 761.132812 210.289062 C 760.835938 208.949219 759.441406 208.433594 759.875 207.117188 Z M 979.535156 285.246094 C 979.527344 285.242188 979.527344 285.242188 979.515625 285.238281 C 979.523438 285.230469 979.53125 285.234375 979.53125 285.234375 C 979.523438 285.230469 979.507812 285.234375 979.507812 285.234375 C 979.507812 285.234375 979.515625 285.238281 979.515625 285.238281 C 979.511719 285.246094 979.507812 285.253906 979.492188 285.261719 C 979.515625 285.261719 979.519531 285.25 979.535156 285.246094 Z M 804.707031 193.355469 C 804.789062 193.328125 804.871094 193.304688 804.953125 193.277344 C 804.929688 193.277344 804.90625 193.277344 804.886719 193.277344 C 804.8125 193.285156 804.738281 193.292969 804.664062 193.308594 C 804.671875 193.3125 804.683594 193.332031 804.707031 193.355469 Z M 816.613281 194.234375 C 816.621094 194.226562 816.609375 194.21875 816.617188 194.210938 C 816.605469 194.183594 816.613281 194.152344 816.601562 194.125 L 816.574219 194.03125 L 816.609375 194.21875 C 816.605469 194.230469 816.597656 194.226562 816.59375 194.234375 C 816.597656 194.226562 816.605469 194.230469 816.613281 194.234375 Z M 804.441406 193.058594 C 804.511719 193.140625 804.582031 193.222656 804.648438 193.292969 C 804.722656 193.285156 804.792969 193.273438 804.867188 193.265625 C 804.707031 193.265625 804.558594 193.199219 804.441406 193.058594 Z M 805.351562 193.1875 C 805.4375 193.175781 805.523438 193.164062 805.601562 193.144531 C 805.605469 193.136719 805.613281 193.140625 805.621094 193.132812 C 805.527344 193.152344 805.4375 193.175781 805.351562 193.1875 Z M 764.648438 202.097656 C 764.640625 202.09375 764.625 202.097656 764.617188 202.09375 C 764.617188 202.09375 764.601562 202.097656 764.601562 202.097656 C 764.597656 202.109375 764.585938 202.113281 764.582031 202.121094 C 764.601562 202.121094 764.621094 202.109375 764.648438 202.097656 Z M 766.09375 201.355469 C 766.101562 201.335938 766.113281 201.316406 766.132812 201.320312 C 766.125 201.335938 766.097656 201.34375 766.09375 201.355469 Z M 782.414062 200.722656 C 782.367188 200.664062 782.320312 200.59375 782.285156 200.507812 C 782.253906 200.546875 782.222656 200.589844 782.191406 200.628906 C 782.265625 200.65625 782.339844 200.695312 782.414062 200.722656 Z M 779.777344 201.875 C 779.644531 201.898438 779.515625 201.96875 779.402344 202.078125 C 779.402344 202.078125 779.402344 202.078125 779.410156 202.085938 C 779.527344 201.988281 779.648438 201.910156 779.777344 201.875 Z M 779.777344 201.875 " fill-opacity="1" fill-rule="nonzero"/></g></g></g></g><g clip-path="url(#35e8e47df4)"><g clip-path="url(#158d2fd47c)"><g clip-path="url(#e001f3c777)"><g clip-path="url(#6a1d8a8800)"><path fill="#ffffff" d="M 807.984375 195.050781 C 808.335938 195.007812 808.683594 194.972656 809.03125 194.921875 C 808.707031 195.234375 808.359375 195.269531 807.984375 195.050781 Z M 807.984375 195.050781 " fill-opacity="1" fill-rule="nonzero"/></g></g></g></g><g fill="#ffffff" fill-opacity="1"><g transform="translate(896.271785, 171.537845)"><g><path d="M 5.03125 -24.421875 C 4.757812 -24.265625 4.03125 -23.9375 2.84375 -23.4375 C 2.632812 -23.363281 2.316406 -23.238281 1.890625 -23.0625 C 1.460938 -22.882812 1.109375 -22.71875 0.828125 -22.5625 L 0.828125 -27.265625 C 3.859375 -28.828125 5.710938 -29.960938 6.390625 -30.671875 L 11.359375 -30.671875 L 11.359375 0 L 5.03125 0 Z M 5.03125 -24.421875 "/></g></g></g><g fill="#ffffff" fill-opacity="1"><g transform="translate(972.785012, 663.160377)"><g><path d="M 10.40625 0.5625 C 7.707031 0.5625 5.640625 -0.226562 4.203125 -1.8125 C 2.765625 -3.40625 2.046875 -5.539062 2.046875 -8.21875 L 2.046875 -22.109375 C 2.046875 -24.910156 2.742188 -27.113281 4.140625 -28.71875 C 5.546875 -30.320312 7.632812 -31.125 10.40625 -31.125 C 13.1875 -31.125 15.269531 -30.320312 16.65625 -28.71875 C 18.039062 -27.113281 18.734375 -24.910156 18.734375 -22.109375 L 18.734375 -8.21875 C 18.734375 -5.5625 18.007812 -3.429688 16.5625 -1.828125 C 15.113281 -0.234375 13.0625 0.5625 10.40625 0.5625 Z M 10.40625 -5.078125 C 11.1875 -5.078125 11.695312 -5.40625 11.9375 -6.0625 C 12.175781 -6.71875 12.296875 -7.484375 12.296875 -8.359375 L 12.296875 -21.953125 C 12.296875 -22.960938 12.1875 -23.800781 11.96875 -24.46875 C 11.757812 -25.144531 11.238281 -25.484375 10.40625 -25.484375 C 9.570312 -25.484375 9.046875 -25.15625 8.828125 -24.5 C 8.617188 -23.84375 8.515625 -22.992188 8.515625 -21.953125 L 8.515625 -8.359375 C 8.515625 -6.171875 9.144531 -5.078125 10.40625 -5.078125 Z M 10.40625 -5.078125 "/></g></g></g><g fill="#ffffff" fill-opacity="1"><g transform="translate(871.920217, 459.733627)"><g><path d="M 10.40625 0.5625 C 7.707031 0.5625 5.640625 -0.226562 4.203125 -1.8125 C 2.765625 -3.40625 2.046875 -5.539062 2.046875 -8.21875 L 2.046875 -22.109375 C 2.046875 -24.910156 2.742188 -27.113281 4.140625 -28.71875 C 5.546875 -30.320312 7.632812 -31.125 10.40625 -31.125 C 13.1875 -31.125 15.269531 -30.320312 16.65625 -28.71875 C 18.039062 -27.113281 18.734375 -24.910156 18.734375 -22.109375 L 18.734375 -8.21875 C 18.734375 -5.5625 18.007812 -3.429688 16.5625 -1.828125 C 15.113281 -0.234375 13.0625 0.5625 10.40625 0.5625 Z M 10.40625 -5.078125 C 11.1875 -5.078125 11.695312 -5.40625 11.9375 -6.0625 C 12.175781 -6.71875 12.296875 -7.484375 12.296875 -8.359375 L 12.296875 -21.953125 C 12.296875 -22.960938 12.1875 -23.800781 11.96875 -24.46875 C 11.757812 -25.144531 11.238281 -25.484375 10.40625 -25.484375 C 9.570312 -25.484375 9.046875 -25.15625 8.828125 -24.5 C 8.617188 -23.84375 8.515625 -22.992188 8.515625 -21.953125 L 8.515625 -8.359375 C 8.515625 -6.171875 9.144531 -5.078125 10.40625 -5.078125 Z M 10.40625 -5.078125 "/></g></g></g><g clip-path="url(#884c81d13a)"><path fill="#ffffff" d="M 254.191406 360.929688 C 254.453125 360.816406 254.527344 358.894531 254.605469 358.59375 C 254.640625 358.292969 254.792969 356.371094 255.054688 356.257812 C 259.160156 354.222656 263.34375 352.414062 267.636719 350.832031 C 284.171875 344.769531 302.707031 342.09375 319.882812 346.992188 C 334.007812 351.023438 347.078125 360.101562 354.460938 372.945312 C 358.378906 379.722656 360.410156 387.445312 360.449219 395.242188 C 360.488281 399.011719 359.960938 402.703125 359.320312 406.355469 C 358.640625 410.160156 357.851562 413.886719 356.570312 417.542969 C 351.109375 433.097656 339.054688 445.078125 324.4375 452.308594 C 308.203125 460.332031 289.824219 462.367188 271.929688 460.933594 C 262.402344 460.144531 252.910156 458.488281 243.644531 456.1875 C 236.488281 454.457031 229.441406 452.195312 222.738281 449.144531 C 209.742188 443.230469 197.652344 433.664062 193.394531 419.5 C 190.871094 411.140625 191.699219 402.777344 193.359375 394.378906 C 194.976562 386.203125 198.480469 378.632812 203.378906 371.925781 C 213.394531 358.292969 228.3125 348.308594 243.644531 341.53125 C 259.839844 334.375 277.582031 330.871094 295.285156 331.246094 C 295.058594 331.246094 294.71875 335.957031 294.417969 335.957031 C 290.238281 335.84375 286.019531 335.957031 281.835938 336.292969 C 265.113281 337.648438 248.691406 342.546875 233.960938 350.53125 C 219.835938 358.214844 206.316406 368.839844 198.367188 383.078125 C 196.371094 386.691406 194.75 390.496094 193.621094 394.453125 C 193.394531 395.28125 193.207031 396.148438 192.980469 397.015625 C 192.492188 398.859375 193.207031 395.207031 193.054688 396.488281 C 192.941406 397.617188 192.753906 398.746094 192.679688 399.875 C 192.527344 401.835938 192.527344 403.832031 192.679688 405.789062 C 193.167969 413.359375 195.804688 420.59375 200.324219 426.695312 C 208.613281 437.921875 221.871094 444.472656 234.828125 448.691406 C 242.476562 451.179688 250.386719 452.910156 258.296875 454.304688 C 267.710938 455.925781 277.28125 456.867188 286.847656 456.566406 C 303.15625 456.113281 319.542969 452.046875 333.292969 443.003906 C 339.84375 438.671875 345.683594 433.25 350.242188 426.847656 C 352.5 423.605469 354.460938 420.179688 356.003906 416.5625 C 356.796875 414.71875 357.511719 412.832031 358.113281 410.914062 C 358.414062 409.972656 358.679688 409.03125 358.90625 408.085938 C 359.019531 407.597656 359.128906 407.109375 359.242188 406.617188 C 359.65625 404.886719 359.019531 408.503906 359.207031 406.730469 C 359.996094 399.011719 359.546875 391.476562 356.757812 384.132812 C 354.273438 377.578125 350.242188 371.664062 345.269531 366.765625 C 334.609375 356.183594 320.109375 350.269531 305.191406 349.25 C 287.527344 348.085938 269.933594 353.167969 254.191406 360.929688 Z M 254.191406 360.929688 " fill-opacity="1" fill-rule="nonzero"/></g><g fill="#ffffff" fill-opacity="1"><g transform="translate(264.067778, 415.352537)"><g><path d="M 6.59375 -30.671875 L 14.3125 -30.671875 L 20.03125 0 L 13.78125 0 L 12.765625 -6.46875 L 8.25 -6.46875 L 7.1875 0 L 0.796875 0 Z M 12.109375 -10.53125 L 10.484375 -22.484375 L 8.859375 -10.53125 Z M 12.109375 -10.53125 "/></g></g></g><g clip-path="url(#889c344a75)"><g clip-path="url(#80a29c503e)"><g clip-path="url(#0327e1b2e6)"><g clip-path="url(#d8dd835ad0)"><path fill="#ffffff" d="M 284.996094 295.238281 C 284.8125 295.085938 284.742188 294.886719 284.777344 294.648438 C 284.09375 294.171875 282.996094 294.945312 282.511719 293.875 C 280.285156 292.542969 280.507812 290.554688 281.117188 288.496094 C 282.847656 282.722656 285.476562 277.351562 288.4375 272.136719 C 299.058594 253.472656 313.082031 237.894531 330.011719 224.652344 C 359.5625 201.523438 393.367188 190.917969 430.355469 189.402344 C 447.5 188.699219 464.453125 191.003906 481.296875 194.101562 C 491.199219 195.921875 500.953125 198.332031 510.777344 200.507812 C 511.097656 200.742188 511.40625 200.976562 511.722656 201.210938 C 512.160156 201.125 512.675781 201.152344 512.992188 200.90625 C 512.992188 200.90625 512.992188 200.90625 513 200.894531 C 513.242188 200.695312 512.957031 200.351562 512.605469 200.273438 C 510.050781 197.257812 506.949219 194.878906 503.71875 192.667969 C 501.507812 191.152344 499.476562 189.519531 497.960938 187.289062 C 493.179688 184.066406 491.945312 179.648438 494.3125 174.945312 C 505.722656 176.371094 514.125 183.050781 522.117188 190.546875 C 525.09375 193.332031 528.246094 195.90625 531.359375 198.53125 C 538.820312 204.808594 537.382812 204.320312 536.074219 212.152344 C 535.78125 213.902344 535.089844 215.558594 534.230469 217.128906 C 533.917969 217.707031 533.574219 218.210938 532.898438 218.378906 C 532.453125 220.355469 530.808594 220.789062 529.1875 221.128906 C 524.367188 222.140625 519.542969 223.09375 514.710938 224.070312 C 513.847656 224.867188 512.765625 224.960938 511.671875 225.003906 C 510.839844 225.835938 509.742188 225.910156 508.667969 226.03125 C 508.171875 226.71875 507.339844 226.71875 506.648438 226.996094 C 497.289062 230.777344 488.492188 235.558594 480.53125 241.828125 C 479.933594 242.304688 479.296875 242.722656 478.679688 243.167969 C 477.949219 243.707031 477.121094 244.316406 476.28125 243.714844 C 475.648438 243.253906 475.523438 242.171875 475.835938 241.582031 C 477.203125 238.964844 476.75 235.9375 477.855469 233.292969 C 478.34375 232.117188 479.269531 231.242188 480.226562 230.367188 C 487.589844 223.574219 495.945312 218.277344 504.867188 213.824219 C 505.664062 213.425781 506.542969 213.144531 507.226562 212.597656 C 508.027344 211.960938 507.582031 211.257812 506.960938 210.691406 C 506.011719 211.054688 505.214844 210.835938 504.550781 210.09375 C 503.621094 210.25 502.707031 210.335938 502.007812 209.496094 C 501.808594 209.660156 501.644531 209.628906 501.515625 209.410156 C 500.632812 209.589844 499.785156 209.613281 499.101562 208.875 C 498.472656 208.863281 497.835938 208.9375 497.222656 208.820312 C 490.5 207.554688 483.804688 206.175781 477.070312 204.984375 C 470.957031 203.898438 464.816406 203.007812 458.691406 202.039062 C 457.039062 201.980469 455.394531 201.984375 453.761719 201.859375 C 437.835938 200.746094 422.019531 201.570312 406.367188 204.757812 C 400.777344 205.902344 395.230469 207.210938 389.664062 208.453125 C 388.761719 209.304688 387.621094 209.335938 386.480469 209.390625 C 385.636719 210.226562 384.554688 210.277344 383.46875 210.339844 C 382.722656 211.195312 381.675781 211.171875 380.679688 211.316406 C 380.238281 211.929688 379.613281 212.050781 378.917969 211.984375 C 378.742188 212.195312 378.527344 212.261719 378.265625 212.167969 C 377.765625 212.835938 376.945312 212.851562 376.269531 213.144531 C 372.929688 214.617188 369.339844 215.476562 366.175781 217.363281 C 365.800781 217.152344 364.753906 217.257812 365.859375 216.429688 C 366.59375 215.871094 366.582031 215.613281 366.304688 215.460938 C 366.066406 215.335938 365.625 215.285156 365.296875 215.214844 C 354.890625 220.183594 345.207031 226.355469 335.925781 233.164062 C 335.121094 233.875 334.3125 234.589844 333.507812 235.300781 C 328.714844 239.550781 323.910156 243.804688 319.113281 248.046875 C 319.0625 248.3125 318.945312 248.507812 318.773438 248.644531 C 318.648438 248.738281 318.507812 248.804688 318.34375 248.84375 C 318.261719 249.273438 318 249.523438 317.585938 249.617188 C 317.519531 250.050781 317.257812 250.304688 316.832031 250.390625 C 316.777344 250.832031 316.515625 251.085938 316.078125 251.171875 C 316.023438 251.613281 315.777344 251.882812 315.339844 251.960938 C 315.292969 252.410156 315.046875 252.671875 314.609375 252.75 L 314.601562 252.761719 C 314.5625 253.199219 314.316406 253.46875 313.890625 253.542969 L 313.871094 253.558594 C 313.660156 253.832031 313.421875 254.097656 313.171875 254.347656 L 313.148438 254.375 C 313.109375 254.8125 312.886719 255.078125 312.449219 255.164062 L 312.425781 255.191406 C 312.386719 255.628906 312.160156 255.894531 311.726562 255.984375 L 311.699219 256.007812 C 311.699219 256.007812 311.695312 256.023438 311.695312 256.023438 C 311.695312 256.023438 311.699219 256.007812 311.699219 256.007812 C 311.675781 256.453125 311.441406 256.722656 311.003906 256.808594 L 310.988281 256.824219 C 310.960938 257.269531 310.726562 257.535156 310.289062 257.625 L 310.285156 257.636719 C 310.25 258.082031 310.015625 258.359375 309.582031 258.457031 C 307.578125 261.117188 305.582031 263.773438 303.578125 266.433594 C 302.101562 267.488281 301.304688 269.097656 300.320312 270.542969 C 300.421875 270.726562 300.546875 270.859375 300.691406 270.972656 C 300.910156 271.144531 301.164062 271.238281 301.480469 271.253906 C 300.851562 272.421875 300.3125 273.644531 299.191406 274.453125 C 298.828125 274.667969 298.507812 274.925781 298.300781 275.3125 C 298.597656 275.03125 298.890625 274.738281 299.191406 274.453125 C 299.066406 274.871094 298.902344 275.246094 298.421875 275.292969 C 298.464844 275.960938 298.15625 276.445312 297.628906 276.828125 C 297.660156 277.257812 297.511719 277.566406 297.074219 277.695312 C 296.996094 278.132812 296.835938 278.496094 296.386719 278.660156 C 296.378906 278.878906 296.308594 279.0625 296.117188 279.207031 C 295.710938 280.457031 295.066406 281.554688 294.15625 282.5 C 293.820312 283.367188 293.507812 284.25 292.753906 284.863281 C 292.746094 285.492188 292.34375 285.925781 291.988281 286.382812 C 290.671875 289.796875 288.738281 292.949219 288.039062 296.785156 C 286.929688 295.976562 285.542969 296.511719 284.996094 295.238281 Z M 501.464844 208.652344 C 501.453125 208.652344 501.453125 208.652344 501.441406 208.65625 C 501.441406 208.644531 501.449219 208.644531 501.449219 208.644531 C 501.441406 208.644531 501.433594 208.660156 501.433594 208.660156 C 501.433594 208.660156 501.441406 208.65625 501.441406 208.65625 C 501.445312 208.664062 501.449219 208.675781 501.441406 208.6875 C 501.457031 208.671875 501.457031 208.664062 501.464844 208.652344 Z M 309.539062 255.277344 C 309.582031 255.203125 309.628906 255.128906 309.671875 255.054688 C 309.652344 255.070312 309.636719 255.085938 309.621094 255.097656 C 309.570312 255.152344 309.523438 255.207031 309.476562 255.269531 C 309.484375 255.269531 309.507812 255.273438 309.539062 255.277344 Z M 319.054688 248.0625 C 319.050781 248.054688 319.042969 248.054688 319.039062 248.046875 C 319.015625 248.03125 318.996094 248.003906 318.972656 247.988281 L 318.886719 247.9375 L 319.042969 248.054688 C 319.042969 248.066406 319.035156 248.066406 319.035156 248.078125 C 319.035156 248.066406 319.042969 248.066406 319.054688 248.0625 Z M 309.140625 255.226562 C 309.25 255.242188 309.359375 255.257812 309.453125 255.265625 C 309.503906 255.210938 309.550781 255.15625 309.601562 255.105469 C 309.480469 255.207031 309.324219 255.253906 309.140625 255.226562 Z M 309.910156 254.722656 C 309.96875 254.65625 310.023438 254.589844 310.070312 254.527344 C 310.070312 254.515625 310.078125 254.515625 310.074219 254.503906 C 310.023438 254.582031 309.96875 254.65625 309.910156 254.722656 Z M 285.261719 288.316406 C 285.253906 288.320312 285.246094 288.332031 285.234375 288.335938 C 285.234375 288.335938 285.226562 288.347656 285.226562 288.347656 C 285.230469 288.355469 285.222656 288.371094 285.226562 288.378906 C 285.242188 288.363281 285.246094 288.34375 285.261719 288.316406 Z M 285.851562 286.804688 C 285.847656 286.785156 285.84375 286.765625 285.859375 286.75 C 285.867188 286.769531 285.851562 286.792969 285.851562 286.804688 Z M 297.683594 275.539062 C 297.605469 275.527344 297.527344 275.503906 297.445312 275.464844 C 297.445312 275.515625 297.449219 275.566406 297.453125 275.617188 C 297.527344 275.589844 297.605469 275.570312 297.683594 275.539062 Z M 296.46875 278.148438 C 296.378906 278.253906 296.332031 278.390625 296.316406 278.550781 C 296.316406 278.550781 296.316406 278.550781 296.328125 278.546875 C 296.351562 278.398438 296.390625 278.261719 296.46875 278.148438 Z M 296.46875 278.148438 " fill-opacity="1" fill-rule="nonzero"/></g></g></g></g><g clip-path="url(#b3f3baf8f5)"><g clip-path="url(#60c9774061)"><g clip-path="url(#9cab662fe9)"><g clip-path="url(#0ece7da903)"><path fill="#ffffff" d="M 313.117188 254.382812 C 313.355469 254.117188 313.59375 253.859375 313.816406 253.59375 C 313.785156 254.039062 313.546875 254.296875 313.117188 254.382812 Z M 313.117188 254.382812 " fill-opacity="1" fill-rule="nonzero"/></g></g></g></g><g clip-path="url(#c26d01e5eb)"><g clip-path="url(#24a0fd7e94)"><g clip-path="url(#ce8760e95a)"><g clip-path="url(#3f1065b53c)"><path fill="#ffffff" d="M 308.46875 482.894531 C 308.269531 483.03125 308.179688 483.222656 308.191406 483.464844 C 307.464844 483.871094 306.449219 482.992188 305.859375 484.007812 C 303.511719 485.117188 303.539062 487.113281 303.945312 489.226562 C 305.097656 495.140625 307.183594 500.746094 309.617188 506.226562 C 318.351562 525.84375 330.773438 542.722656 346.320312 557.570312 C 373.449219 583.496094 406.046875 597.375 442.703125 602.523438 C 459.699219 604.910156 476.792969 604.28125 493.863281 602.859375 C 503.894531 602.019531 513.839844 600.582031 523.832031 599.382812 C 524.171875 599.183594 524.5 598.976562 524.839844 598.777344 C 525.265625 598.90625 525.785156 598.929688 526.074219 599.207031 C 526.074219 599.207031 526.074219 599.207031 526.078125 599.21875 C 526.300781 599.4375 525.984375 599.753906 525.625 599.796875 C 522.789062 602.546875 519.464844 604.609375 516.035156 606.492188 C 513.6875 607.78125 511.503906 609.207031 509.777344 611.277344 C 504.703125 614.015625 503.035156 618.289062 504.933594 623.203125 C 516.425781 622.90625 525.445312 617.085938 534.136719 610.414062 C 537.371094 607.933594 540.761719 605.683594 544.117188 603.375 C 552.160156 597.863281 550.683594 598.207031 550.152344 590.285156 C 550.03125 588.511719 549.507812 586.800781 548.804688 585.152344 C 548.550781 584.542969 548.257812 584.011719 547.601562 583.777344 C 547.355469 581.761719 545.761719 581.175781 544.179688 580.675781 C 539.484375 579.191406 534.773438 577.769531 530.0625 576.324219 C 529.285156 575.445312 528.214844 575.246094 527.132812 575.09375 C 526.382812 574.183594 525.300781 574 524.246094 573.773438 C 523.820312 573.042969 522.988281 572.960938 522.328125 572.617188 C 513.386719 567.933594 505.101562 562.308594 497.796875 555.285156 C 497.246094 554.757812 496.65625 554.277344 496.085938 553.773438 C 495.410156 553.164062 494.648438 552.472656 493.753906 552.992188 C 493.078125 553.386719 492.847656 554.453125 493.101562 555.070312 C 494.203125 557.808594 493.457031 560.777344 494.292969 563.515625 C 494.664062 564.734375 495.5 565.699219 496.367188 566.664062 C 503.023438 574.144531 510.820312 580.238281 519.257812 585.550781 C 520.011719 586.023438 520.859375 586.390625 521.488281 587.003906 C 522.222656 587.714844 521.707031 588.371094 521.035156 588.871094 C 520.125 588.417969 519.3125 588.558594 518.578125 589.230469 C 517.667969 588.984375 516.765625 588.8125 515.988281 589.574219 C 515.804688 589.394531 515.640625 589.410156 515.492188 589.613281 C 514.628906 589.347656 513.789062 589.242188 513.035156 589.910156 C 512.410156 589.859375 511.78125 589.71875 511.160156 589.777344 C 504.347656 590.378906 497.546875 591.089844 490.726562 591.613281 C 484.535156 592.089844 478.339844 592.375 472.148438 592.734375 C 470.5 592.628906 468.863281 592.464844 467.222656 592.425781 C 451.269531 591.96875 435.609375 589.59375 420.347656 584.878906 C 414.894531 583.191406 409.503906 581.34375 404.085938 579.558594 C 403.273438 578.625 402.144531 578.480469 401.011719 578.3125 C 400.253906 577.398438 399.183594 577.242188 398.105469 577.070312 C 397.449219 576.148438 396.402344 576.066406 395.425781 575.824219 C 395.046875 575.175781 394.4375 574.988281 393.742188 574.988281 C 393.585938 574.761719 393.378906 574.675781 393.109375 574.742188 C 392.679688 574.027344 391.863281 573.929688 391.21875 573.570312 C 388.039062 571.78125 384.554688 570.570312 381.589844 568.382812 C 381.195312 568.554688 380.164062 568.347656 381.183594 569.28125 C 381.859375 569.910156 381.820312 570.164062 381.53125 570.285156 C 381.28125 570.390625 380.839844 570.394531 380.503906 570.433594 C 370.636719 564.460938 361.605469 557.371094 353.039062 549.679688 C 352.3125 548.894531 351.574219 548.105469 350.847656 547.316406 C 346.492188 542.613281 342.128906 537.90625 337.773438 533.214844 C 337.75 532.949219 337.652344 532.742188 337.492188 532.585938 C 337.382812 532.484375 337.25 532.402344 337.085938 532.34375 C 337.046875 531.914062 336.8125 531.636719 336.410156 531.503906 C 336.386719 531.0625 336.152344 530.785156 335.734375 530.660156 C 335.722656 530.214844 335.488281 529.9375 335.0625 529.804688 C 335.050781 529.359375 334.832031 529.070312 334.402344 528.949219 C 334.402344 528.496094 334.183594 528.214844 333.753906 528.09375 L 333.746094 528.078125 C 333.753906 527.640625 333.535156 527.347656 333.117188 527.230469 L 333.101562 527.214844 C 332.914062 526.921875 332.707031 526.632812 332.484375 526.359375 L 332.460938 526.332031 C 332.46875 525.890625 332.269531 525.605469 331.84375 525.476562 L 331.820312 525.445312 C 331.828125 525.007812 331.628906 524.722656 331.203125 524.589844 L 331.183594 524.5625 C 331.183594 524.5625 331.175781 524.550781 331.175781 524.550781 C 331.175781 524.550781 331.183594 524.5625 331.183594 524.5625 C 331.199219 524.117188 330.992188 523.828125 330.566406 523.699219 L 330.550781 523.683594 C 330.570312 523.238281 330.363281 522.949219 329.9375 522.816406 L 329.929688 522.804688 C 329.941406 522.355469 329.734375 522.058594 329.3125 521.917969 C 327.582031 519.074219 325.859375 516.234375 324.125 513.390625 C 322.761719 512.195312 322.125 510.515625 321.289062 508.980469 C 321.402344 508.808594 321.542969 508.683594 321.695312 508.589844 C 321.933594 508.4375 322.191406 508.367188 322.507812 508.386719 C 322 507.160156 321.585938 505.894531 320.550781 504.976562 C 320.210938 504.726562 319.914062 504.4375 319.746094 504.035156 C 320.011719 504.34375 320.273438 504.664062 320.550781 504.976562 C 320.464844 504.550781 320.335938 504.160156 319.867188 504.066406 C 319.972656 503.40625 319.714844 502.894531 319.226562 502.460938 C 319.300781 502.039062 319.179688 501.714844 318.757812 501.542969 C 318.722656 501.101562 318.601562 500.722656 318.171875 500.515625 C 318.183594 500.296875 318.132812 500.105469 317.957031 499.945312 C 317.671875 498.660156 317.140625 497.503906 316.328125 496.472656 C 316.078125 495.578125 315.855469 494.667969 315.167969 493.984375 C 315.21875 493.355469 314.863281 492.886719 314.550781 492.398438 C 313.578125 488.871094 311.964844 485.542969 311.648438 481.65625 C 310.464844 482.351562 309.136719 481.683594 308.46875 482.894531 Z M 515.363281 590.363281 C 515.351562 590.359375 515.351562 590.359375 515.34375 590.355469 C 515.339844 590.367188 515.351562 590.371094 515.351562 590.371094 C 515.339844 590.367188 515.335938 590.351562 515.335938 590.351562 C 515.335938 590.351562 515.34375 590.355469 515.34375 590.355469 C 515.347656 590.347656 515.351562 590.335938 515.34375 590.324219 C 515.359375 590.339844 515.355469 590.351562 515.363281 590.363281 Z M 328.957031 525.082031 C 328.996094 525.15625 329.03125 525.234375 329.066406 525.3125 C 329.050781 525.296875 329.035156 525.28125 329.019531 525.265625 C 328.976562 525.207031 328.933594 525.148438 328.894531 525.078125 C 328.902344 525.082031 328.925781 525.078125 328.957031 525.082031 Z M 337.71875 533.195312 C 337.714844 533.203125 337.703125 533.199219 337.699219 533.210938 C 337.675781 533.222656 337.65625 533.246094 337.628906 533.257812 L 337.539062 533.300781 L 337.703125 533.199219 C 337.707031 533.191406 337.699219 533.1875 337.703125 533.175781 C 337.699219 533.1875 337.707031 533.191406 337.71875 533.195312 Z M 328.558594 525.089844 C 328.667969 525.082031 328.777344 525.078125 328.871094 525.082031 C 328.914062 525.140625 328.957031 525.199219 329.003906 525.257812 C 328.894531 525.144531 328.742188 525.078125 328.558594 525.089844 Z M 329.273438 525.667969 C 329.324219 525.738281 329.375 525.808594 329.414062 525.878906 C 329.410156 525.886719 329.421875 525.890625 329.417969 525.898438 C 329.371094 525.820312 329.324219 525.738281 329.273438 525.667969 Z M 308.050781 489.808594 C 308.039062 489.804688 308.035156 489.792969 308.023438 489.789062 C 308.023438 489.789062 308.019531 489.777344 308.019531 489.777344 C 308.023438 489.765625 308.015625 489.753906 308.019531 489.746094 C 308.035156 489.761719 308.039062 489.785156 308.050781 489.808594 Z M 308.488281 491.375 C 308.484375 491.394531 308.476562 491.414062 308.492188 491.429688 C 308.5 491.410156 308.488281 491.382812 308.488281 491.375 Z M 319.152344 503.746094 C 319.074219 503.753906 318.996094 503.765625 318.910156 503.800781 C 318.917969 503.75 318.921875 503.699219 318.929688 503.648438 C 319.003906 503.683594 319.082031 503.710938 319.152344 503.746094 Z M 318.199219 501.03125 C 318.125 500.917969 318.089844 500.777344 318.089844 500.617188 C 318.089844 500.617188 318.089844 500.617188 318.101562 500.621094 C 318.109375 500.773438 318.136719 500.910156 318.199219 501.03125 Z M 318.199219 501.03125 " fill-opacity="1" fill-rule="nonzero"/></g></g></g></g><g clip-path="url(#a45eea00e6)"><g clip-path="url(#ce5e6e3e2c)"><g clip-path="url(#3d74a79d92)"><g clip-path="url(#e3e66a7e90)"><path fill="#ffffff" d="M 332.433594 526.320312 C 332.640625 526.609375 332.851562 526.890625 333.050781 527.175781 C 333.058594 526.726562 332.847656 526.445312 332.433594 526.320312 Z M 332.433594 526.320312 " fill-opacity="1" fill-rule="nonzero"/></g></g></g></g><g fill="#ffffff" fill-opacity="1"><g transform="translate(346.276173, 176.357928)"><g><path d="M 10.40625 0.5625 C 7.707031 0.5625 5.640625 -0.226562 4.203125 -1.8125 C 2.765625 -3.40625 2.046875 -5.539062 2.046875 -8.21875 L 2.046875 -22.109375 C 2.046875 -24.910156 2.742188 -27.113281 4.140625 -28.71875 C 5.546875 -30.320312 7.632812 -31.125 10.40625 -31.125 C 13.1875 -31.125 15.269531 -30.320312 16.65625 -28.71875 C 18.039062 -27.113281 18.734375 -24.910156 18.734375 -22.109375 L 18.734375 -8.21875 C 18.734375 -5.5625 18.007812 -3.429688 16.5625 -1.828125 C 15.113281 -0.234375 13.0625 0.5625 10.40625 0.5625 Z M 10.40625 -5.078125 C 11.1875 -5.078125 11.695312 -5.40625 11.9375 -6.0625 C 12.175781 -6.71875 12.296875 -7.484375 12.296875 -8.359375 L 12.296875 -21.953125 C 12.296875 -22.960938 12.1875 -23.800781 11.96875 -24.46875 C 11.757812 -25.144531 11.238281 -25.484375 10.40625 -25.484375 C 9.570312 -25.484375 9.046875 -25.15625 8.828125 -24.5 C 8.617188 -23.84375 8.515625 -22.992188 8.515625 -21.953125 L 8.515625 -8.359375 C 8.515625 -6.171875 9.144531 -5.078125 10.40625 -5.078125 Z M 10.40625 -5.078125 "/></g></g></g><g clip-path="url(#e893dbf415)"><path fill="#ffffff" d="M 349.191406 595.285156 C 353.503906 595.285156 356.464844 596.285156 358.351562 597.371094 L 360.148438 591.203125 C 357.992188 590.113281 353.863281 588.933594 349.191406 588.933594 C 337.496094 588.933594 329.21875 595.59375 326.671875 605.511719 L 320.398438 605.511719 L 320.398438 610.144531 L 325.925781 610.144531 C 325.875 610.835938 325.847656 611.542969 325.847656 612.253906 C 325.847656 612.96875 325.871094 613.605469 325.914062 614.261719 L 320.398438 614.261719 L 320.398438 618.894531 L 326.617188 618.894531 C 328.984375 628.566406 336.679688 634.671875 347.488281 634.671875 C 353.324219 634.671875 357.902344 633.21875 359.96875 632.128906 L 358.621094 626.140625 C 356.375 627.136719 353.414062 628.320312 348.921875 628.320312 C 342.511719 628.320312 337.292969 624.851562 335.039062 618.894531 L 347.648438 618.894531 L 347.648438 614.261719 L 333.960938 614.261719 C 333.878906 613.496094 333.839844 612.707031 333.839844 611.890625 C 333.839844 611.300781 333.859375 610.71875 333.90625 610.144531 L 347.648438 610.144531 L 347.648438 605.511719 L 334.808594 605.511719 C 336.777344 599.507812 341.683594 595.285156 349.191406 595.285156 Z M 349.191406 595.285156 " fill-opacity="1" fill-rule="nonzero"/></g></svg>